<svg xmlns="http://www.w3.org/2000/svg" version="1.1" width="600px" height="600px" viewBox="0 0 200 200" style="overflow:hidden!important;"><g id="svga-group-wrapper"><g id="svga-group-backs-single"></g><g id="svga-group-humanwrap-move" transform="matrix(1,0,0,1,0,0)"><g id="svga-group-humanwrap"><g id="svga-group-hair-back-move" transform="matrix(1,0,0,1,0,0)"><g id="svga-group-hair-back"><path id="SvgjsPath4757" d="M81.5 113.2c-.2-1.7-1.2-2.7-1.8-4.3-.8-2.2-.1-3.6.2-5.9.4-3.4-1.7-5.8-1.8-9 0-3.7 2.3-7.2 2.5-11 .2-3.6-.8-7.3-2.8-10.3-2.7-4-8.1-7.4-13-6.4-.8-.9-2.5-1.2-3.5-.3-2 1.7-2.9 3.9-2.5 6.6.4 2.6 1.1 3.4-.5 5.8-.6.9-1.6 1.6-2.2 2.5-.9 1.4-1.2 2.9-.6 4.3-1.5 1.5-2.8 3.1-4.4 4.5-1 1-1.9 1.7-2.2 3.2-.4 2.4 1.4 4.2-.1 6.6-.8 1.3-2.4 2.1-3.1 3.6-.6 1.2-.6 2.5-.3 3.8.6 2.5 1.8 3.6.3 6.3-.8 1.4-2.2 2.3-2.4 4.1-.2 2.1 2.1 4.8.7 6.7-.3.4.2 1 .7.8 3.7-1.2 2.2-4.1 2.8-7 .5-2.3 2.2-3 3.1-5.1.8-1.9 0-3.2-.3-5-.6-3.7 1.4-4.1 3-6.8.9-1.5.8-2.6.8-4.3 0-2.2-.1-2.5 1.3-4.2.5-.6 1.2-1.1 1.7-1.8.1-.2.2-.4.3-.5 0 .5 0 1 .1 1.3l-.5.5c-1.3 1.6-2.2 2.8-1.2 5 .2.5.6.8 1 1.1-.2 1-.8 1.7-1.9 2.2-1.3.8-1.8 2.8-.5 4 .2.2.4.3.5.5-.5.9-.7 1.8-.4 2.9-1 1-2.3 2-2.5 3.3-.2 1 .2 1.8.5 2.7.9 2.1 1.3 1.2 0 3.4-1.2 2-1.5 2.6-.7 4.8.7 1.7.8 2 .5 3.8-.2 1.2-.3 2 0 3.3.3 1.1 1.9.9 2-.3 0-.6.3-1.2.6-1.7.1 1.7 1 2.7 2.6 3.1.1 0 .3.1.4.1-.1 1.4.3 2.5 1.8 3.1.7.3 1.5-.7 1-1.3-.1-.2-.2-.4-.2-.6.1.1.2.1.2.2 1.4 1 2.8 1.1 3.9.7v.1c-.2.9.7 1.4 1.4 1.1 1 .7 2.2 1.1 3.2.9.4.4 1.2.3 1.6-.2.5-.8 1.8-1.1 2.5-1.9.3-.4.5-.9.7-1.4.4.9.9 1.6.9 1.6-1.1 1.6 1.4 3.5 2.7 2.1 1.2-1.3 1.5-2.3 1.1-4-.1-.6-.4-.9-.7-1.1.5-.2.9-.6 1.1-1.1.7-2.7 1.6-3.8 1.5-6.6-.2-3 1.3-5.6.9-8.5zm-23.6-1.6c-.1.4-.2.7-.4 1-.7-.9-1.2-.3-.1-1.2.1-.1.3-.2.4-.3 0 .1.1.3.1.5zm-1.3 9.7c0 .1-.1.2-.1.3v.1c-.1.3-.2.6-.3.8-.3-.8-.8-1.5-.8-2.2 0-.4.1-.8.3-1.1.8.7 1 1.4.9 2.1zm107.8 4.7c1.3.7-.9-7.1-.9-6.8.2-2.1 2.3-2.6.8-5-.9-1.4-2-1-2-2.7 0-.9 1.3-2.2 1.4-3.3.3-2.3-.7-3.8-2.5-5.2-1.9-1.4-2.9-.8-2.7-3.9.1-1.4.7-2.5.5-4-.4-3.2-2.6-3.8-4.9-5.3-1.4-.3-2.4-1.1-3.1-2.5.1-.7.1-1.4 0-2.1-.2-1.2-.7-2-1.6-2.7-3-2.4-6.9-.8-9.6-4.3-.2-.3-.6-.5-.9-.7-.7-2.9-2.4-5.3-5.2-6.8-3.6-1.9-10.9-1.8-14.4 1.3-1 .6-1.9 1.4-2.6 2.5-.7 1.1-.8 2-.9 3.2-.1 1.1.3 2.4-.2 3.4-.3.7-1.2 1.2-1.6 1.8-2 3.3.1 5.8.8 9 1.1 4.7-2.7 8.2-.8 13.1 1 2.7 1.5 4.9 1.3 7.8-.1 1-.1 1.8 0 2.5-.4.6-.6 1.2-.7 1.8-.1 1.1.5 1.9 1.1 2.8 1 1.8 2.9 1 2.1 4.5-.2.8-1.2 1.7-1.6 2.5-.5 1-.7 2-.6 3.2.1 1.3 2.5 4.2 1.5 5.3-1.3 1.5.3 3.4 2 2.6 1.6-.7 2.3-1.6 2.5-2.6.3.4.8.6 1.4.6h.1l.2.2c.8.8 1.8.4 2.2-.4.2.4.4.8.6 1.3.6 1.1 2.2.5 2.2-.6.1-.8.2-1.6.4-2.3.2.2.4.4.8.5l.7.3c.7.3 1.3-.1 1.6-.6.6.9 1.7 1.6 3 1.7.8.1 1.2-.9.9-1.5-.3-.7-.2-1.2.1-1.7.1.1.3.3.6.4.7.5 1.5-.1 1.7-.8.6 0 1.2-.1 2.2-.2.8-.1 1.2-.8 1.3-1.5.6.7 1.1 1.3.9 2-.2.8.9 1.6 1.4.8.9-1 1.1-1.8.8-3.1-.4-1.4-1.2-1.8-1.1-3.3 0-.4.3-.8.6-1.2.1.1.2.2.3.4 0 .1.5.2.6.1-.1.3-.6 1-.6 1.2 0 .4 1.1 5.4 2.4 3.4-.4.6 0 1.5.7 1.7.2.1.4.1.5.1.6.2 1.4-.1 1.7-.7l.3-.6c.4-.8.3-1.6-.3-2.2-.4-.4-1.2-1.4-1.3-1.2.1-.6.9-1.4.9-2.1-.1-1.8-1.4-2.1-2.4-2.7.9-1.2 1.8-2.5 2.7-3.7.7-1 .1-2.2-.7-2.8-.4-.3-4.8-2-4.8-1.9-.1-.3 2.2-3.4 2.3-4.2.4-2.5-1.1-4.2-3-5.3 1-1.4 1.7-2.9 1.7-4.6.7.5 2.6 1.5 2.4 1 .3.8-.6 2.3-.3 3.4.4 1.2 1.1 1.5 1.8 2.4 1 1.2 1.1.5 1.1 2.1 0 .6-.6 1.2-.8 1.7-.3 1.3-.3 2.4.3 3.6.5 1 2 1.6 2.2 2.5.2 1-1.1 2.6-1.1 3.7 0 .9.3 1.6.8 2.4.3.5 1.1.6 1.3 1 .7 1.2.2 1.8.4 2.8.2 1.3-.2 1.4.4 2.5.4.9 1.8.4 1.8-.5-.1-2.5 2.1-3.7 1.2-6.3-.5-1.5-1.5-1.5-1.2-3.6.2-1.1.9-2 .8-3.2-.1-.9-.6-1.5-1-2.3-.4-.9-.9-.7-.9-1.9 0-.3.9-1.8 1.1-2.3.3-1.1.4-2.3-.1-3.3-.5-1.3-2-1.6-2.5-2.7-.9-1.7.8-3.6-1-5.4-.8-.9-2.4-1-3-1.9-.6-1-.2-2.7-.7-3.9-.5-1.2-1.5-1.9-2.6-2.6-2-1.3-2.1-1.4-2.6-3.8l-.3-.9c.8.1 1.6.2 2.1.6 1.3.9.7 2 1.3 3.6.5 1.5 1.5 2.4 2.9 3.2 2.4 1.4 4.8 1 4.6 4.6-.1 3-.9 5.3 1.8 7.5 1.1.9 3.4 1.3 3.6 2.9.1.9-1.5 2.7-1.5 4 0 1.1.2 2.3 1.1 3.2 1.4 1.4 1.6.4 1.7 2.3.1 1.1-.8 1.7-.4 2.9.5 1.3 1.3 1.5 1.6 2.8.5 2.2-.6 3.9 2 4.7 1.3.8 2-1.1.9-1.7zm-24.5 1.6c-.2-.2-.3-.4-.5-.7-.2-.5-.4-.7-.5-.8.1 0 .3-.1.4-.7.1-.5.6-.8.9-1.3.3.2.5.4.6.7.3.3-.6 1.7-.9 2.8zm5-7.8-1.2 1.7-.1-.1c-1.2-1.5-1.4-.5-1-2.1.8.1 1.6.3 2.3.5zm-1.6-23.1c-1.1-1.1-2.2-1.7-3-2.5v-.7c.1.1.2.2.4.3 1.9 1.3 2.2 1.3 2.6 2.9z" fill="#000000" stroke-width="none" opacity="1"></path></g></g><g id="svga-group-humanbody-back"><path id="SvgjsPath4475" d="M86.5 107c0 18.8 2.7 50.3-8.1 58s-31.8 13.9-36.7 24.4-3.6 29.4-3.6 29.4h124.1s.6-23.1-4.2-30.4c-6.6-10.1-28.5-17.7-36.5-22.9-8.1-5.2-10.9-32.2-10.9-58.8l-24.1.3z" fill="#ffffff" stroke-width="none" opacity="1"></path></g><g id="svga-group-chinshadow-single"></g><g id="svga-group-humanbody-front"><path id="SvgjsPath4476" d="M163.4 220.1H37.2l-.3-.9c-.1-.5-1.3-19.7 3.6-30.3 3.4-7.3 13.6-12.4 23.5-17.4 5.1-2.5 9.9-5 13.6-7.5 8.6-6 8.1-29.8 7.7-47.1-.1-3.5-.1-6.8-.1-9.8v-1.3l26.7-.4v1.3c0 32 3.8 53.5 10.3 57.7 2.4 1.6 6 3.3 10.2 5.4 9.7 4.7 21.9 10.6 26.7 18 5 7.6 4.4 30.9 4.4 31.2l-.1 1.1zm-124.1-2.6h121.6c-.1-2.4-.6-23.2-4-28.4-4.4-6.7-16.2-12.5-25.6-17-4.3-2.1-8-3.9-10.5-5.5-9.8-6.3-11.4-38.8-11.5-58.6l-21.5.4c0 2.6.1 5.5.1 8.5.4 18.9.9 42.4-8.8 49.3-3.8 2.7-8.7 5.1-13.9 7.7-9.5 4.8-19.4 9.7-22.3 16.1-3.3 6.9-3.7 25.9-3.6 27.5z" fill="#000000" stroke-width="none" opacity="1"></path><path id="SvgjsPath4477" d="M76.8 173.7c4.8 2.3 10.4 3.9 15.7 2.9.4-.1.4-.7 0-.8-5.1-.9-10.2-1.4-15.2-3.2-.6-.2-1.1.8-.5 1.1zm31.5 2.4c2.4.3 4.9-.4 7.1-1.2 2.1-.8 4.3-1.7 5.8-3.4.5-.5-.1-1.2-.7-.9-2.1.9-3.9 2.3-6.1 3-2 .7-4.1 1-6.2 1.5-.6.1-.4.9.1 1z" fill="#000000" stroke-width="none" opacity="1"></path></g><g id="svga-group-clothes-single"><path id="SvgjsPath8996" d="M156.05 184.79s-23.03 2.08-57.59 2.27c-34.55.19-52.11-4.34-52.11-4.34s-5.48 4.72-7.93 7.55c-2.45 2.83-7.36 4.53-7.36 4.53s.57 4.91 3.4 4.53c2.83-.38 6.61-2.27 8.31-2.08 1.7.19.94 3.21 3.96 3.4s4.72-2.45 6.99-2.08c1.29.22 2.52 1.41 3.8 2.15l-2.4 10.39 1.95 8.69h87.23l2.23-8.02-2.23-9.89c.75-.43 1.49-.99 1.94-1.44.94-.94 3.96-.19 5.48.76s3.78-.94 5.29-2.83c1.51-1.89 5.48-.19 8.31-.57 2.83-.38 3.78-2.83 3.78-2.83-3.8-1.51-13.05-10.19-13.05-10.19z" fill="#ffffff" stroke-width="none" opacity="1"></path><path id="SvgjsPath8997" d="M169.44 194.05c-2.95-1.18-10.18-7.62-12.71-10-.21-.2-.49-.29-.77-.27-.23.02-23.39 2.08-57.5 2.26-33.98.21-51.68-4.26-51.85-4.31-.32-.08-.65 0-.9.21-.23.2-5.56 4.8-8.03 7.65-2.25 2.59-6.89 4.23-6.94 4.24-.44.15-.72.59-.67 1.06.04.35.44 3.41 2.19 4.78.68.53 1.48.75 2.33.63 1.4-.19 2.94-.69 4.42-1.18 1.45-.48 2.96-.97 3.65-.89.13.01.24.17.52.77.44.93 1.17 2.48 3.49 2.63 1.85.12 3.27-.66 4.42-1.29.95-.52 1.71-.93 2.46-.8.65.11 1.39.63 2.17 1.18.23.16.48.33.73.5l-1.94 7.02c-.78 2.84-.65 5.85.38 8.61.68 1.81 1.34 3.51 1.43 3.61.19.21.46.33.75.33h87.12c.39 0 1.5-2.83 2.36-5.35.78-2.27.88-4.72.28-7.05l-1.53-5.94c.76-.5 1.39-1.03 1.65-1.3.38-.38 2.75-.03 4.24.9.29.18.6.28.92.33a1.004 1.004 0 0 0 1.19.1c.07-.04.12-.11.18-.17 1.34-.36 2.84-1.49 4.31-3.33.6-.75 2.31-.55 3.97-.35 1.24.15 2.51.31 3.69.15 3.38-.45 4.53-3.34 4.58-3.46.17-.49-.08-1.07-.59-1.27zm-26.16 24.75H58.17l-.32-.66a16.17 16.17 0 0 1-.7-12.63l1.2-3.34c.82.23 1.69.24 2.63-.27l.69-.37c1.94-1.05 2.64-1.41 3.35-1.1.2.08.5.63.83.93 1.81 1.69 2.26 1.99 4.66 1.74 1.15-.12 1.76-.73 2.25-1.04.76-.49.92-.59 1.71-.43.55.11.97.38 1.44.7.85.56 1.91 1.26 3.71.8.88-.22 1.75-.7 2.59-1.16.86-.48 1.55-.83 2.11-.97.08.02.16.05.24.05.15 0 .29-.04.41-.09.2.03.37.11.53.25 2.18 1.96 6.03 2.86 7.64 1.79.18-.12.37-.25.57-.4.78-.56 1.97-1.4 2.53-1.08 1.75 1 4.51 1.69 6.53.34 1.3-.87 2.27-.75 3.46.44.82.82 1.9 1.24 3.03 1.16 1.34-.08 2.64-.82 3.57-2.01.05-.06.18-.23.63-.26 1.32-.1 3.5 1.14 4.35 1.99.26.26.57.41.91.51 2.3.61 5.26-1.08 6.91-1.92l.45-.23c1.07-.53 2.8.11 3.63 1.36 0 .01.01.01.01.01.01.01.02.03.03.04.23.32.48.54.72.69.8.46 1.66.38 2.66-.12.54-.28 1.05-.65 1.54-1.01.33-.25.65-.48.89-.62.52-.25 3.03.25 6.17 1.51.46.18.99.16 1.53.01l1.11 2.83c1.3 3.3 1.25 6.98-.14 10.25l-.95 2.31zm21.89-21.98c-.92.12-2.07-.02-3.18-.15-2.2-.27-4.47-.54-5.77 1.08-1.08 1.35-2.23 2.29-3.07 2.59-1.12-1.84-3.93-6.48-4.93-8.59a.994.994 0 0 0-1.33-.48c-.5.23-.71.83-.48 1.33.78 1.65 2.55 4.67 3.87 6.88-1.7-.55-3.74-.75-4.75.27-.94.94-2.61 1.87-3.03 1.8-2.77-1.11-6.4-2.25-7.9-1.39-.35.2-.71.46-1.09.74-.54.4-1.54 1.13-1.94 1.06a.305.305 0 0 1-.1-.07c-.34-1.16-2.46-8.33-2.74-10.17a.998.998 0 0 0-1.14-.84c-.55.08-.92.59-.84 1.14.21 1.33 1.23 5.01 1.99 7.67-.57-.22-1.17-.34-1.76-.34-.62 0-1.23.13-1.78.4l-.47.24c-4.33 2.22-5.29 1.98-5.49 1.78-1.16-1.16-3.85-2.69-5.89-2.58-.88.05-1.6.41-2.08 1.03-.57.73-1.36 1.19-2.12 1.24-.55.04-1.07-.16-1.49-.58-.72-.72-1.47-1.19-2.24-1.42l-.6-7.83a.997.997 0 1 0-1.99.15l.59 7.63c-.57.14-1.15.39-1.74.78-1.35.9-3.49.12-4.42-.41-1.68-.96-3.49.33-4.69 1.18-.18.13-.36.25-.52.36-.61.41-3.52-.1-5.2-1.61-.41-.37-.84-.59-1.28-.7.01-2.01.04-6.41.16-8.21a.99.99 0 0 0-.93-1.06c-.54-.02-1.03.38-1.06.93-.13 1.91-.15 6.49-.16 8.45-.81.25-1.6.69-2.32 1.08-.73.4-1.48.82-2.11.98-.95.24-1.4-.05-2.13-.54-.54-.36-1.22-.8-2.15-.98-1.58-.32-2.32.16-3.18.71-.46.3-1.03.66-1.94 1.05-.89.38-1.31.06-2.29-1.25-.31-.42-.63-.83-1.01-1.16.09-1.36.38-5.02 1.12-7.86a.996.996 0 0 0-.72-1.22.997.997 0 0 0-1.22.71c-.71 2.71-1.02 5.99-1.15 7.68-1.13.01-2.27.62-3.78 1.44l-.68.37c-.91.49-1.8-.08-3.16-1.04-.93-.66-1.89-1.33-2.99-1.52-1.44-.24-2.61.4-3.75 1.02-1.06.58-2.07 1.12-3.34 1.05-1.14-.07-1.41-.63-1.81-1.48-.16-.35-.36-.75-.64-1.1 1.37-1.46 4.04-4.53 5.84-8.12a.993.993 0 0 0-.45-1.34.988.988 0 0 0-1.34.45c-1.94 3.89-5.09 7.24-6.03 8.2-1.07.04-2.43.49-3.97.99-1.4.46-2.84.94-4.06 1.1-.32.04-.58-.03-.83-.22-.69-.53-1.1-1.79-1.3-2.68 1.55-.63 4.98-2.2 6.99-4.51 2.01-2.32 6.16-5.99 7.44-7.12 3.17.73 20.81 4.42 51.85 4.25 31.6-.17 53.84-1.95 57.22-2.23 1.56 1.45 8.14 7.46 11.97 9.58-.44.56-1.23 1.24-2.49 1.41z" fill="#000000" stroke-width="none" opacity="1"></path></g><g id="svga-group-head" transform="matrix(1,0,0,1,0,0)"><g id="svga-group-ears-left-move" transform="matrix(1,0,0,1,0,0)"><g id="svga-group-ears-left"><path id="SvgjsPath4427" d="M64.8 80.5c-.2-.3-3.3-4.3-5.9-6.7s-3.4-2.4-4.6-.9c-1.3 1.5-2.9 9.1-2.5 12.4.4 3.4 3.6 8.7 5.2 11.7 1.7 3 3.3 6.7 5.1 6.3 1.9-.4 4.4-4.6 5.7-7.7 1.2-3.1.6-10.9-3-15.1z" fill="#ffffff" stroke-width="none" opacity="1"></path><path id="SvgjsPath4428" d="M56.9 98.9c-.3-.5-.5-1-.8-1.4l-.6-1c-1.8-3.1-4.4-7.8-4.8-11-.4-3.5 1.2-11.4 2.7-13.2.6-.7 1.2-1.3 2.2-1.4 1.2-.1 2.3.7 3.9 2.2 1.6 1.4 3.5 3.6 5.8 6.5l.2.3c3.9 4.6 4.5 12.8 3.2 16.1-1.1 3-3.9 7.8-6.4 8.3h-.5c-2 .1-3.4-2.6-4.9-5.4zm7.2-17.8s-.1-.1-.2-.3c-2.2-2.8-4.1-5-5.6-6.3-1.2-1.1-2.1-1.7-2.4-1.7-.2 0-.4.2-.8.7-1 1.2-2.6 8.4-2.3 11.7.3 2.8 2.8 7.3 4.5 10.3l.6 1c.3.5.5 1 .8 1.4.9 1.7 2.5 4.6 3.3 4.4 1.2-.2 3.6-3.7 4.9-7.1 1.1-2.8.4-10.2-2.8-14.1z" fill="#000000" stroke-width="none" opacity="1"></path><path id="SvgjsPath4429" d="M54 87c-.3-2.3-.5-7.8.8-9.6 2.2-2.9 6 6.4 6.9 9.3 0 .1.1.2.1.3.2.3-.1.7-.4.6-.4-.2-.9-.6-1.3-.8-1.1-.5-1.6.5-1.3 1.8.4 1.8 1.4 2.9 2.2 4.3.1.2 0 .4-.2.3-1.6-.9-3.5-4.5-3.1-6.6.3-2 1.9-1.8 3.1-.8-.7-1.7-1.5-3.3-2.5-4.8-.6-.9-1.2-2-2.2-2.2-1.2-.2-1 .3-1.2 1.8-.8 4.8-.3 10.4 2.5 14.5.1.1 0 .2-.1.1-1.7-2.3-2.9-4.9-3.3-8.2z" fill="#000000" stroke-width="none" opacity="1"></path></g></g><g id="svga-group-ears-right-move" transform="matrix(1,0,0,1,0,0)"><g id="svga-group-ears-right"><path id="SvgjsPath4430" d="M135.2 80.5c.2-.3 3.3-4.3 5.9-6.7 2.6-2.4 3.4-2.4 4.6-.9s2.9 9.1 2.5 12.4c-.4 3.4-3.6 8.7-5.2 11.7-1.7 3-3.3 6.7-5.1 6.3s-4.4-4.6-5.7-7.7c-1.2-3.1-.6-10.9 3-15.1z" fill="#ffffff" stroke-width="none" opacity="1"></path><path id="SvgjsPath4431" d="M138.1 104.4h-.5c-2.5-.5-5.2-5.4-6.4-8.3-1.3-3.4-.7-11.5 3.2-16.1l.2-.3c2.3-2.9 4.2-5.1 5.8-6.5 1.6-1.4 2.7-2.2 3.9-2.2 1 .1 1.6.7 2.2 1.4 1.5 1.8 3.1 9.7 2.7 13.2-.4 3.2-3 7.9-4.8 11l-.6 1c-.3.5-.5.9-.8 1.4-1.4 2.7-2.8 5.4-4.9 5.4zm-2.2-23.3c-3.2 3.9-3.9 11.2-2.8 14.1 1.3 3.4 3.7 6.9 4.9 7.1.8.2 2.4-2.7 3.3-4.4.3-.5.5-1 .8-1.4l.6-1c1.7-3 4.2-7.5 4.5-10.3.4-3.3-1.3-10.5-2.3-11.7-.4-.4-.6-.7-.8-.7-.3 0-1.2.5-2.4 1.7-1.5 1.4-3.3 3.5-5.6 6.3 0 .2-.1.3-.2.3z" fill="#000000" stroke-width="none" opacity="1"></path><path id="SvgjsPath4432" d="M146 87c.3-2.3.5-7.8-.8-9.6-2.2-2.9-6 6.4-6.9 9.3 0 .1-.1.2-.1.3-.2.3.1.7.4.6.4-.2.9-.6 1.3-.8 1.1-.5 1.6.5 1.3 1.8-.4 1.8-1.4 2.9-2.2 4.3-.1.2 0 .4.2.3 1.6-.9 3.5-4.5 3.1-6.6-.3-2-1.9-1.8-3.1-.8.7-1.7 1.5-3.3 2.5-4.8.6-.9 1.2-2 2.2-2.2 1.2-.2 1 .3 1.2 1.8.8 4.8.3 10.4-2.5 14.5-.1.1 0 .2.1.1 1.7-2.3 2.9-4.9 3.3-8.2z" fill="#000000" stroke-width="none" opacity="1"></path></g></g><g id="svga-group-faceshape-wrap"><g id="svga-group-faceshape-single"><path id="SvgjsPath4459" d="M138.2 58.2c-2-10.8-13.3-27.4-37.2-27.4S69.1 43.5 65.5 53c-3 8.1-3 21.3-3 21.3s.4 28.4 10 46.1c9.3 17 28.9 31.8 46.2 11.8 21.5-24.8 20.6-57.8 20.6-57.8s.3-8.5-1.1-16.2z" fill="#ffffff" stroke-width="none" opacity="1"></path><path id="SvgjsPath4460" d="M100.7 143.1c-.8 0-1.5 0-2.3-.1-11.8-1.3-21.7-12.2-27-22-9.6-17.7-10.2-45.5-10.2-46.7 0-.6 0-13.6 3.1-21.8 5.8-15.5 17.8-23 36.7-23 10.9 0 20.5 3.4 27.7 10 5.5 5 9.6 11.9 10.8 18.5 1.4 7.6 1.2 15.7 1.2 16.4s.1 8.8-2.3 19.9c-2.3 10.5-7.4 25.8-18.7 38.8-5.8 6.6-12.2 10-19 10zm.3-111c-17.7 0-28.9 7-34.3 21.3-2.9 7.8-2.9 20.8-2.9 20.9 0 .3.5 28.3 9.9 45.5 5 9.2 14.2 19.5 25 20.6 6.8.7 13.3-2.3 19.1-9.1 20.9-24.1 20.3-56.6 20.3-57 0-.1.2-8.4-1.2-15.9-1.1-6-4.8-12.4-10-17-6.6-6.1-15.6-9.3-25.9-9.3z" fill="#000000" stroke-width="none" opacity="1"></path></g></g><g id="svga-group-mouth-single-move" transform="matrix(1,0,0,1,0,0)"><g id="svga-group-mouth-single"><path id="SvgjsPath8834" d="M114.35 121.31c-.22.11-.44.19-.66.28-3.57-1.77-7.08-3.68-10.51-5.71-.04-.14-.18-.26-.34-.17-1.1.6-2.21 1.19-3.31 1.79-.02-.01-.02-.03-.04-.04l-2.43-.99c.06-.18-.13-.41-.35-.29a43.686 43.686 0 0 0-7.65 5.34c-.83-.16-1.65-.38-2.46-.67-.59-.21-.85.73-.26.94 1.15.41 2.32.7 3.5.86 2.82 2.94 6.19 6.18 10.56 6.03 4.15-.15 7.24-3.51 10.51-5.65 1.31 0 2.62-.23 3.94-.88.56-.27.06-1.12-.5-.84zM96.6 116.8c.92.38 1.84.75 2.76 1.13.06.03.11.01.16-.01.07.04.14.06.23.01 1.04-.56 2.07-1.12 3.11-1.68 3.32 1.97 6.72 3.82 10.18 5.54-4.09 1.13-8.32-1.32-12.49-1.26-1.98.03-3.86.66-5.79 1.02-1.71.32-3.4.33-5.07.07 2.13-1.83 4.44-3.44 6.91-4.82zm-6 5.94c.96.09 1.93.09 2.9-.01 2.62-.27 5.1-1.32 7.77-1.19 3 .14 5.9 1.28 8.8 1.47-2.76 1.93-5.4 4.57-8.82 5.09-4.36.66-7.81-2.44-10.65-5.36z" fill="#000000" stroke-width="none" opacity="1"></path></g></g><g id="svga-group-eyes-left-move" transform="matrix(1,0,0,1,0,0)"><g id="svga-group-eyes-left"><g id="svga-group-eyesback-left"></g><g id="svga-group-eyesiriswrapper-left"><g id="svga-group-eyesiriscontrol-left" transform="matrix(1,0,0,1,0,0)"><g id="svga-group-eyesiris-left"><path id="SvgjsPath6015" d="M77.3 84.5c-1.4 1.8-1.2 4.1.4 5.5 1.7 1.5 4.5 1.9 6.5.1 1-1 1.7-2.4 1.4-3.7-.1-.4-.3-.9-.5-1.3-.2-.5-.5-1-.9-1.4-2-1.7-5.2-1.4-6.9.8z" fill="#ffffff" stroke-width="none" opacity="1"></path><path id="SvgjsPath6016" d="M85.8 86.3c-.1-.5-.3-.9-.6-1.3-.2-.6-.5-1-1-1.4-.9-.8-2.2-1.2-3.5-1.1-1.4.1-2.8.8-3.7 1.9-1.5 1.8-1.3 4.3.4 5.9.9.9 2.3 1.4 3.6 1.4 1.1 0 2.3-.4 3.2-1.3 1.3-1.3 1.9-2.8 1.6-4.1zm-.6-.1c-.6.1-1.2.1-1.9.2 0-.1-.1-.2-.1-.2.4-.1.7-.3 1.1-.5.2-.1.4-.1.6-.2.1.2.2.5.3.7zm-.8-1.6.3.6v.1c-.6.3-1.1.5-1.7.8-.1-.1-.1-.2-.2-.3.6-.5 1.1-.9 1.6-1.2zm-.6-.7c.2.1.3.3.4.4-.5.3-1.1.7-1.5 1.2l-.1-.1c-.1-.1-.2-.1-.2-.2.2-.3.4-.7.6-1 .1-.2.3-.4.4-.6.2.1.3.2.4.3zm-1.9.1c0-.3.1-.7.1-1 .4.1.8.2 1.2.5-.2.2-.3.4-.4.6-.2.3-.4.7-.6 1-.1-.1-.3-.1-.4-.2.1-.3.1-.6.1-.9zm-1.1-1.1h.4c.2 0 .4 0 .6.1-.1.3-.1.6-.1 1 0 .3-.1.7-.1 1-.2 0-.3-.1-.5-.1 0-.3-.1-.6-.1-.9-.1-.4-.2-.8-.2-1.1zm-4.1 3.6c.6.2 1.4.4 2 .3v.7c-.7-.1-1.3 0-2 0-.1-.4 0-.7 0-1zm0 1.2c.7-.1 1.3-.1 2-.1 0 .1.1.2.1.2-.3.1-.7.2-1 .4-.3.1-.6.2-.8.3-.1-.2-.2-.5-.3-.8zm.7 1.5c-.1-.1-.2-.3-.3-.4.3-.1.6-.2.8-.4.3-.1.6-.2.9-.4-.4.5-.9.8-1.4 1.2zm.4.5-.3-.3c.5-.3 1-.7 1.5-1.1.1.1.1.2.2.2-.2.2-.4.4-.6.7-.2.2-.4.5-.6.8 0-.1-.1-.2-.2-.3zm.5.4c.2-.2.4-.5.6-.8.2-.2.4-.4.5-.6.1.1.2.1.3.2-.2.2-.3.5-.5.8-.2.2-.3.4-.5.7-.1-.1-.2-.2-.4-.3zm.7.4c.2-.2.3-.4.4-.5l.6-.9c.1 0 .2.1.3.1-.2.5-.2 1.1-.5 1.6-.3-.1-.5-.2-.8-.3zm1 .3c.3-.5.4-1.1.5-1.6.2 0 .3.1.5.1-.1.5 0 1.1 0 1.7-.3 0-.6-.1-1-.2zm1.3.2c0-.5 0-1.1-.1-1.7.2 0 .3 0 .5-.1.1.5.3 1.1.5 1.6-.3.1-.6.1-.9.2zm3-1.6c-.4-.2-.8-.5-1.2-.8 0 .1-.1.2-.1.2.3.3.7.6 1 .8l-.2.2c-.2.2-.3.3-.5.4-.1-.2-.3-.4-.4-.6-.1-.2-.2-.3-.3-.5-.1 0-.2.1-.2.1.1.2.2.3.3.5.1.2.3.5.4.7-.2.1-.5.2-.7.3-.2-.5-.3-1.1-.6-1.6.1 0 .1 0 .1-.1l-.3-.3c-.7.2-1.6 0-2.1-.5-.4-.3-.6-.8-.5-1.3-.2-.1-.4-.3-.4-.6-.3-.1-.7-.1-1-.1-.3 0-.6-.1-.9-.2.1-.3.2-.7.4-1 .3.2.6.3.9.5.2.1.3.2.5.3 0-.1 0-.2.1-.3-.2-.1-.3-.1-.5-.2-.3-.1-.6-.3-.9-.4.1-.1.2-.2.2-.3l.6-.6c.1.2.3.4.5.6.1.1.2.3.4.4.1-.1.2-.1.2-.2l-.1-.1c-.2-.2-.3-.4-.5-.6-.1-.1-.2-.3-.3-.4.2-.2.5-.3.8-.5.1.3.2.5.4.7.1.2.3.4.4.6.1 0 .3 0 .4.1l-.6-.9c-.1-.2-.2-.5-.3-.7.3-.2.7-.2 1.1-.3 0 .3.1.7.2 1 .1.3.1.6.2.9-.2 0-.3.1-.4.1.1.1.3.2.3.3h.4c.5 0 .9.2 1.2.4.2.2.3.3.4.6.1.2.2.3.2.5.1.3 0 .6-.1.9.1.1.2.2.3.4 0 0 0-.1.1-.1.2.2.6.3.8.5.2.1.5.3.7.4-.1.5-.3.6-.4.8zm.5-.8c-.2 0-.8-.4-.9-.5-.2-.1-.3-.2-.5-.2 0 0-.1 0-.2-.1.1-.2.1-.4.2-.6.6.2 1.2.2 1.8.3-.1.4-.2.8-.4 1.1zm.4-1.3-1.8-.3v-.4c.6 0 1.3-.1 1.8-.2.1.4.1.6 0 .9zm-2.8.3h.2c.3-.9-.2-1.9-1.2-2.2-.2-.1-.4-.1-.6-.1.3.7 0 1.8-1.1 1.8h-.3c.1.6.3 1.1 1 1.4.4.2.9.2 1.2.1 0-.4.2-1 .8-1z" fill="#000000" stroke-width="none" opacity="1"></path></g></g></g><g id="svga-group-eyesfront-left"><path id="SvgjsPath5535" d="M81 74.4c-6.9 0-12.5 5.6-12.5 12.5S74.1 99.4 81 99.4s12.5-5.6 12.5-12.5S87.9 74.4 81 74.4zm7.1 17s-3.9.4-5.4.4c-4.1 0-7.1-1.8-7.1-1.8s-7.5-5.3-2.3-7.1c5-1.7 11.2.8 13.2 2.9 2.1 2.1 1.6 5.6 1.6 5.6z" fill="#ffffff" stroke-width="none" opacity="1"></path><path id="SvgjsPath5536" d="M71.3 84c-.3.8-.2 1.7.4 2.8 1.4 2.4 3.9 4.2 7.1 4.9 1.2.3 2.5.4 3.9.4s3-.1 4.7-.4c.1 0 .2-.1.3-.2 0 .1.1.3.3.3.2.1.5 0 .6-.3.7-1.9 0-4.3-1.6-6-1.2-1.3-3-2.2-5.4-3-3.2-.9-5.9-1-8.2-.2-1.2.5-1.8 1-2.1 1.7zm.8.4c.2-.5.7-.8 1.5-1.1 2.1-.7 4.7-.6 7.7.2 2.3.7 3.9 1.5 5 2.7 1.4 1.4 1.9 3.4 1.4 4.9-.1-.2-.2-.3-.4-.3h-.1c-3.3.6-6 .6-8.3 0-2.9-.7-5.3-2.3-6.5-4.5-.3-.5-.6-1.3-.3-1.9zm-4.9-3c.1 0 .2.1.2.2 0 .3.1.5.3.7.4.3 1.3.4 2.2.3.4-.1.9-.3 1.6-.5 1.6-.6 3.8-1.3 6.5-1.4 3.6-.1 8.3 1.2 10.3 4.2 1.2 1.7 1.7 4.2 1.5 7.2v.1c0 .1-.1.2-.2.2s-.2-.1-.2-.2V92c.2-2.9-.3-5.3-1.4-7-1.9-2.8-6.5-4.1-9.9-4-2.6 0-4.8.8-6.4 1.3-.6.2-1.2.4-1.6.5-1.1.4-2.1.2-2.6-.2-.3-.2-.5-.6-.5-1 0-.1.1-.2.2-.2z" fill="#000000" stroke-width="none" opacity="1"></path></g></g></g><g id="svga-group-eyes-right-move" transform="matrix(1,0,0,1,0,0)"><g id="svga-group-eyes-right"><g id="svga-group-eyesback-right"></g><g id="svga-group-eyesiriswrapper-right"><g id="svga-group-eyesiriscontrol-right" transform="matrix(1,0,0,1,0,0)"><g id="svga-group-eyesiris-right"><path id="SvgjsPath6017" d="M115.8 84.5c-1.4 1.8-1.2 4.1.4 5.5 1.7 1.5 4.5 1.9 6.5.1 1-1 1.7-2.4 1.4-3.7-.1-.4-.3-.9-.5-1.3-.2-.5-.5-1-.9-1.4-2.1-1.7-5.3-1.4-6.9.8z" fill="#ffffff" stroke-width="none" opacity="1"></path><path id="SvgjsPath6018" d="M124.2 86.3c-.1-.5-.3-.9-.6-1.3-.2-.6-.5-1-1-1.4-.9-.8-2.2-1.2-3.5-1.1-1.4.1-2.8.8-3.7 1.9-1.5 1.8-1.3 4.3.4 5.9.9.9 2.3 1.4 3.6 1.4 1.1 0 2.3-.4 3.2-1.3 1.4-1.3 1.9-2.8 1.6-4.1zm-.6-.1c-.6.1-1.2.1-1.9.2 0-.1-.1-.2-.1-.2.4-.1.7-.3 1.1-.5.2-.1.4-.1.6-.2.2.2.3.5.3.7zm-.7-1.6.3.6v.1c-.6.3-1.1.5-1.7.8-.1-.1-.1-.2-.2-.3.6-.5 1.1-.9 1.6-1.2zm-.6-.7c.2.1.3.3.4.4-.5.3-1.1.7-1.5 1.2l-.1-.1c-.1-.1-.2-.1-.2-.2.2-.3.4-.7.6-1 .1-.2.3-.4.4-.6.2.1.3.2.4.3zm-1.9.1c0-.3.1-.7.1-1 .4.1.8.2 1.2.5-.2.2-.3.4-.4.6-.2.3-.4.7-.6 1-.1-.1-.3-.1-.4-.2 0-.3.1-.6.1-.9zm-1.1-1.1h.4c.2 0 .4 0 .6.1-.1.3-.1.6-.1 1 0 .3-.1.7-.1 1-.2 0-.3-.1-.5-.1 0-.3-.1-.6-.1-.9-.1-.4-.2-.8-.2-1.1-.1 0-.1 0 0 0zm-4.1 3.6c.6.2 1.4.4 2 .3v.7c-.7-.1-1.3 0-2 0-.1-.4-.1-.7 0-1zm0 1.2c.7-.1 1.3-.1 2-.1 0 .1.1.2.1.2-.3.1-.7.2-1 .4-.3.1-.6.2-.8.3-.2-.2-.3-.5-.3-.8zm.7 1.5c-.1-.1-.2-.3-.3-.4.3-.1.6-.2.8-.4.3-.1.6-.2.9-.4-.5.5-1 .8-1.4 1.2zm.4.5-.3-.3c.5-.3 1-.7 1.5-1.1.1.1.1.2.2.2-.2.2-.4.4-.6.7-.2.2-.4.5-.6.8 0-.1-.1-.2-.2-.3zm.5.4c.2-.2.4-.5.6-.8.2-.2.4-.4.5-.6.1.1.2.1.3.2-.2.2-.3.5-.5.8-.2.2-.3.4-.5.7-.1-.1-.3-.2-.4-.3zm.7.4c.2-.2.3-.4.4-.5l.6-.9c.1 0 .2.1.3.1-.2.5-.2 1.1-.5 1.6-.3-.1-.6-.2-.8-.3zm1 .3c.3-.5.4-1.1.5-1.6.2 0 .3.1.5.1-.1.5 0 1.1 0 1.7-.3 0-.7-.1-1-.2zm1.3.2c0-.5 0-1.1-.1-1.7.2 0 .3 0 .5-.1.1.5.3 1.1.5 1.6-.3.1-.6.1-.9.2zm3-1.6c-.4-.2-.8-.5-1.2-.8 0 .1-.1.2-.1.2.3.3.7.6 1 .8l-.2.2c-.2.2-.3.3-.5.4-.1-.2-.3-.4-.4-.6-.1-.2-.2-.3-.3-.5-.1 0-.2.1-.2.1.1.2.2.3.3.5.1.2.3.5.4.7-.2.1-.5.2-.7.3-.2-.5-.3-1.1-.6-1.6.1 0 .1 0 .1-.1l-.3-.3c-.7.2-1.6 0-2.1-.5-.4-.3-.6-.8-.5-1.3-.2-.1-.4-.3-.4-.6-.3-.1-.7-.1-1-.1-.3 0-.6-.1-.9-.2.1-.3.2-.7.4-1 .3.2.6.3.9.5.2.1.3.2.5.3 0-.1 0-.2.1-.3-.2-.1-.3-.1-.5-.2-.3-.1-.6-.3-.9-.4.1-.1.2-.2.2-.3l.6-.6c.1.2.3.4.5.6.1.1.2.3.4.4.1-.1.2-.1.2-.2l-.1-.1c-.2-.2-.3-.4-.5-.6-.1-.1-.2-.3-.3-.4.2-.2.5-.3.8-.5.1.3.2.5.4.7.1.2.3.4.4.6.1 0 .3 0 .4.1l-.6-.9c-.1-.2-.2-.5-.3-.7.3-.2.7-.2 1.1-.3 0 .3.1.7.2 1 .1.3.1.6.2.9-.2 0-.3.1-.4.1.1.1.3.2.3.3h.4c.5 0 .9.2 1.2.4.2.2.3.3.4.6.1.2.2.3.2.5.1.3 0 .6-.1.9.1.1.2.2.3.4 0 0 0-.1.1-.1.2.2.6.3.8.5.2.1.5.3.7.4-.2.5-.3.6-.4.8zm.5-.8c-.2 0-.8-.4-.9-.5-.2-.1-.3-.2-.5-.2 0 0-.1 0-.2-.1.1-.2.1-.4.2-.6.6.2 1.2.2 1.8.3-.1.4-.2.8-.4 1.1zm.4-1.3-1.8-.3v-.4c.6 0 1.3-.1 1.8-.2 0 .4.1.6 0 .9zm-2.8.3h.2c.3-.9-.2-1.9-1.2-2.2-.2-.1-.4-.1-.6-.1.3.7 0 1.8-1.1 1.8h-.3c.1.6.3 1.1 1 1.4.4.2.9.2 1.2.1-.1-.4.2-1 .8-1z" fill="#000000" stroke-width="none" opacity="1"></path></g></g></g><g id="svga-group-eyesfront-right"><path id="SvgjsPath5537" d="M119 74.4c-6.9 0-12.5 5.6-12.5 12.5s5.6 12.5 12.5 12.5 12.5-5.6 12.5-12.5-5.6-12.5-12.5-12.5zm5.3 15.6s-3 1.7-7.1 1.8c-1.5 0-5.4-.4-5.4-.4s-.5-3.4 1.5-5.5 8.2-4.6 13.2-2.9c5.4 1.7-2.2 7-2.2 7z" fill="#ffffff" stroke-width="none" opacity="1"></path><path id="SvgjsPath5540" d="M126.6 82.4c-2.3-.8-5.1-.7-8.2.2-2.4.7-4.2 1.7-5.4 3-1.6 1.7-2.3 4-1.6 6 .1.2.3.4.6.3.2-.1.3-.2.3-.3.1.1.2.2.3.2 1.7.3 3.3.4 4.7.4 1.4 0 2.7-.1 3.9-.4 3.1-.7 5.7-2.6 7.1-4.9.6-1.1.7-2 .4-2.8-.4-.8-1-1.3-2.1-1.7zm.9 3.9c-1.2 2.2-3.6 3.8-6.5 4.5-2.3.6-4.9.5-8.3 0h-.1c-.2 0-.4.1-.4.3-.5-1.6.1-3.5 1.4-4.9 1.1-1.2 2.7-2 5-2.7 3-.9 5.6-.9 7.7-.2.8.3 1.3.6 1.5 1.1.3.6 0 1.4-.3 1.9zm5.2-4.9c-.1 0-.2.1-.2.2 0 .3-.1.5-.3.7-.4.3-1.3.4-2.2.3-.4-.1-.9-.3-1.6-.5-1.6-.6-3.8-1.3-6.5-1.4-3.6-.1-8.3 1.2-10.3 4.2-1.2 1.7-1.7 4.2-1.5 7.2v.1c0 .1.1.2.2.2s.2-.1.2-.2V92c-.2-2.9.3-5.3 1.4-7 1.9-2.8 6.5-4.1 9.9-4 2.6 0 4.8.8 6.4 1.3.6.2 1.2.4 1.6.5 1.1.2 2.1.1 2.6-.3.3-.2.5-.6.5-1 0 0-.1-.1-.2-.1z" fill="#000000" stroke-width="none" opacity="1"></path></g></g></g><g id="svga-group-facehighlight-single"></g><g id="svga-group-eyebrows-left-move" transform="matrix(1,0,0,1,0,0)"><g id="svga-group-eyebrows-left-rotate" transform="matrix(1,1.7453292519943295e-9,-1.7453292519943295e-9,1,1.3121334063725953e-7,-1.391175175058379e-7)"><g id="svga-group-eyebrows-left"><path id="SvgjsPath6294" d="M66.69 76.82c.2-.16 4.99-4.03 7.37-4.29 2.38-.26 16.59 3.49 17.53 4.99.42.68.51 1.21.26 1.59-.21.31-.61.46-1.21.46-.39 0-.88-.06-1.45-.19-.95-.21-3.53-1.13-6.26-2.1-3.68-1.31-7.84-2.79-8.86-2.86-1.43-.11-5.57 2.09-7.04 2.94-.14.08-.32.04-.41-.1a.336.336 0 0 1 .07-.44z" fill="#000000" stroke-width="none" opacity="1"></path></g></g></g><g id="svga-group-eyebrows-right-move" transform="matrix(1,0,0,1,0,0)"><g id="svga-group-eyebrows-right-rotate" transform="matrix(1,1.7453292519943295e-9,-1.7453292519943295e-9,1,1.3123080577770452e-7,-2.0997542549139325e-7)"><g id="svga-group-eyebrows-right"><path id="SvgjsPath6295" d="M133.31 76.82c-.2-.16-4.99-4.03-7.37-4.29-2.38-.26-16.59 3.49-17.53 4.99-.42.68-.51 1.21-.26 1.59.21.31.61.46 1.21.46.39 0 .88-.06 1.45-.19.95-.21 3.53-1.13 6.26-2.1 3.68-1.31 7.84-2.79 8.86-2.86 1.43-.11 5.57 2.09 7.04 2.94.14.08.32.04.41-.1.09-.15.06-.34-.07-.44z" fill="#000000" stroke-width="none" opacity="1"></path></g></g></g><g id="svga-group-nose-single-move" transform="matrix(1,0,0,1,0,0)"><g id="svga-group-nose-single"><path id="SvgjsPath8485" d="M107 108.4c-.7-.6-1.8-.6-2.6-.4-2.2.5-3.6 2.5-6 1.4-1.4-.6-2.7-1.8-4.3-1.9-.8-.1-1.9.1-2.4.8-.4.6-.1 1.3.6 1.6 1.1.6 2.6-.1 3.7-.6 1.1.6 2.2 1.4 3.5 1.6s2.4-.4 3.5-1l.6-.3c1 .5 2.5 1.1 3.5.4.4-.4.4-1.1-.1-1.6zm-14.3.5c.3-.4 1.1-.3 1.7-.2-.1 0-.2.1-.3.1-.2 0-1.4.1-1.4.1z" fill="#000000" stroke-width="none" opacity="1"></path><path id="SvgjsPath8486" d="M96.7 100.5c-.1-6.5.1-13 .7-19.5.1-.7-1.1-.7-1.1 0-.6 6.5-.8 13-.7 19.5 0 .8 1.1.8 1.1 0z" fill="#000000" stroke-width="none" opacity="1"></path></g></g><g id="svga-group-hair-front"><path id="SvgjsPath4755" d="M176.3 114.9c-1.2.3-1.9-.3-2.2-1.8l.9-1.2c.5-1 .6-1.8.6-2.8 0-.8-.5-1.5-1.1-1.8 1.4-3.2-.1-4.7-1.1-7.9-.8-2.6.4-4.4-2-6.5-.7-.6-1-.3-1.6-1.1-.3-.4-.2-1.2-.4-1.7-.4-.8-1.6-1.8-1.9-2.5-.5-1.4.5-3-.1-4.6-.5-1.3-1.6-1.7-1.7-3.2-.2-2.4 1.1-4.2-1-6.2-1.8-1.7-1.7-.6-1.9-3.4-.1-1.1.1-1.9-.5-2.9-.9-1.3-2-.7-3-1.5s-.4-1.3-.5-2.8c-.2-2.8-1.4-2.9-3.1-3.8-.1-2.2 0-3.9-1.4-5.2.3-1.2.2-2.5-.8-3.6-.7-.8-1.8-.7-2.5-1.1-.1 0-.1-.1-.1-.1 0-.1-.1-.4-.1-.7-.6-2-.9-3.1-3-3.6-1.6-.4-2.2.5-3.5-1.1-.3-.4-.1-1.6-.5-2.2-.9-1.3-1.9-.9-2.9-.9-.3-.8-.6-1.4-1.6-2-.2-.2-.5-.3-.8-.3-.3-.7-.7-1.3-1.7-1.7-.2 0-.6-.1-1-.1-.2-.8-.3-1.5-1.3-2.1-.1-.1-.3-.1-.5-.2-.9-1-1.9-1.2-3-1-.2-1.5-1.4-2.8-3.1-2.3-2.9.8-2.3-.4-4.3-1.7-1.7-1.1-2.9.1-4.3-.4-.8-.3-1.6-1.5-2.7-1.8-1.4-.4-2.7.7-3.9.4-1-.3-1.4-1.6-2.7-1.8-.7-.1-2.7.7-2.8 1.2-.5-.5-1.1-1.2-1.8-1.2-1.2 0-2.3 1-3.3 1.8-.6-.8-1.4-1.4-2.5-1.4-.4-.6-1.1-1.1-2.1-1.2-.7-.1-1.4 0-2.1.3-.7-.8-1.7-1.2-2.8-.9-.7.2-1.1.4-1.7.8l-.4.4c-.4-.2-.9-.4-1.4-.5-.9-.1-1.7.1-2.4.4-.2-.1-.4-.2-.7-.3-1.2-.2-2.3-.3-3.4.1-.6.2-1 .6-1.4 1-.2 0-.3-.1-.5-.1-.7-.1-1.4-.1-2 .2-.5.2-1.3.9-1.5 1.5 0 .1 0 .1-.1.2-.2-.1-.3-.2-.5-.3-2.1-1-3.9.9-4.4 2.9-.5-.1-1 0-1.5.4-1 .9-2.2 1.1-3.5.9-1.8-.4-3.2.8-3.3 2.6-.1 1.5-1.8.3-3.2 1-1.4.7-1.5 1.9-2 3.1-.5 1.3 1 .1.1.9-.3.2-1.4.2-1.8.4-1.1.6-1.6 1.6-1.8 2.7-.1.5 0 .9 0 1.4.1.9.1 1.5.3 1.4-.7.4-2 .5-2.7 1.2-1.1 1.1-1.5 2.6-1.3 4-.8.3-1.6.4-2.6.6-1.2.2-1.7 1.7-1.5 2.7.1.5 1.4 2.6 1.3 2.8-.2 1.1-1.4.9-2.2 1.5-.9.8-1.3 4.6-2.2 4.5-.9-.1-1.4.8-1.5 1.5-.2 1.4 1.8 3.6-.5 4.1-1.2.3-1.9 1.9-1.2 3 1.5 2.3-1.1 2.5-1.6 4.5-.2.7 0 1.6.3 2.2.3.5.4.8.6.9-.9.4-2.2.4-2.9 1.5-.6.9-.3 4.6-.7 4.6-1.8.1-3.3 2.1-2.2 3.8.5.6.9 1.2 1.2 1.9-2 .2-3.1 2.1-2.2 3.9l1.3.7c-1.7-.3-3.5 1.1-2.9 2.9.3 1.1.8 1.9 1.2 2.8-.7.4-1.5.7-1.9 1.6-.6 1.4.9 3.9-.9 4.6-.8.3-1.1 1.1-.8 1.8.5 1.1.8 2 .6 3.3-.1.6-.9 1.1-.8 1.8 0 1.5.2 2.2 1.6 2.7 1.3.6 2.8-.9 1.6-2.1.4.4 1.1-3.8 1.1-3.9-.1-.6-.5-1.1-1-1.6 1.4-.5 2.5-1.3 2.8-3 .1-.4.1-1.8-.3-1.9.4-.2 1.2-.5 1.8-.8-.7.9-.6 2.5.1 3.4-1.6 1.2-1.9 4.5.7 4.9 1.1.2 1.3.4 1 1-1.2.5-2 2-.8 3.1.1.1.2.2.3.2.1.1.1.2.2.3-.2.1-.4.1-.6.3-.6.4-1.2 1.1-1.4 1.8-.2.8-.1 1.6.3 2.3.4.6 1 1.3 1.8 1.4 0 .2 0 .3-.1.5-.2 2.3 3.2 3.1 4.3 1.2.3-.8.8-1.4 1.6-1.8 2.1-.2 3.4-2.2 2.4-4.1.1-.8.2-1.7.3-2.5.7-.7.9-1.6.8-2.5.2.8.6 1.5 1.2 2-1.7.8-2.6 3.6-.4 4.6.1 0 .2.1.2.1-.1.1-.2.1-.2.2-1.7 1.1-1.6 3.2 0 4.3-.1.3-.2.6-.4.9-1.9 1.3-.8 5 1.7 4 3-1.2 4.1-3.9 3.3-6.4.4-.3.9-.7 1.4-1.2.9-.8.8-2.2 0-3.1 0 0 0-.1-.1-.1.4-.3.8-.6 1.3-.9.2-.1.3-.3.4-.5.2.6.6 1.1 1.1 1.4.1.1.2.2.3.2-.5.3-1 .6-1.4 1.4-.7 1.2-.2 3.1 1.1 3.7-1.5 1-1 3.4.5 4.2-.3 1.7 1.2 3.9 3.2 3.1.7-.3 1.4-.6 2.2-.9 2.3-.9 2.5-3.4.6-4.9l-.9-.6c.3-.9.3-1.9 0-2.8.1-.1.2-.1.3-.2.7-.6 1.1-1.2 1.3-2.1.3-1.5-.2-2.5-1-3.4 1-.7 1.9-1.5 1.9-3.2 0-1.5-.7-2.6-1.8-3.5.4-.5.8-1.1.8-1.6.2-1.4-.1-2.2-.9-3.3-.2-.2-.9-1.1-1.5-1.4.6-1 1.4-3.1 1.2-4.2-.2-1.2-.8-2.2-1.6-3.1 1.5-1.8 1.5-4.4.2-6.5 1.6-1.8 1.8-4.3.9-6.5.4-.3.8-.8 1.1-1.2-.2.5-.2.9-.2 1.5.2 2 1.2 3.7 1.1 5.8-.1 1.7-.6 1.5-.1 3.2.1.3.5.5.6.8.5 1.2 1 2.4.7 4.1-.2 1.2-1.2 2-1 3.4.1 1.2.6 1.2 1.1 2.3.8 1.6.4 1.2-.3 3.1-.8 2.2-.3 2.3.8 3.9.8-.1 1.1.3.9 1.1.1.4.1.9-.1 1.3 0 .5-.2.8-.1 1.2.2.7.3 1.1.6 1.4-.8 1.6-1 3-.2 4.8.2.4.9.6 1 0 .1-1.6.7-3 1.8-4.3.5-.6.5-1.6-.2-2-.8-.4.3-2.8.2-3.5-.1-.7-.6-1.2-1-1.8-1-1.3-1.4.1-.4-2 .4-.8 1.2-1.3 1.3-2.3.3-2.9-2.9-2.2-2.2-5.4.7-3.1 1.8-3.1.4-6.2-1.1-2.5-.1-4-.5-6.6-.1-.6-.8-.9-.9-1.5-.4-1.2.1-2.8.5-4 .3-.9 1-1.6.8-2.6-.1-.8-.6-1-.9-1.6-.1-.2-.8-.2-.9-.4-.4-1.1 1-2.6 1.2-3.7.1-.4.1-.7.2-1.1.4.1.9-.2.9-.7 0-1.1 0-2.1.1-3.1.1-.8.1-1.6.2-2.4.2.7.4 1.3.7 2 .3.7 1.3.2 1.2-.5-.2-1.3-.3-2.6-.3-4 .3 1.6.7 3.2 1.3 4.8.2.6 1.3.6 1.2-.2-.3-3.5-.8-6.6-.6-9.9-.1 3.3.1 6.4.7 9.2.2.8 1.3.6 1.3-.2.1-1.6.1-3.2.2-4.9.2 1.7.5 3.4.9 4.8.2.8 1.4.6 1.4-.2.1-1.2 0-2.5 0-3.7.2 1.4.5 2.8.9 4.1.2.7 1.3.6 1.3-.2 0-1.8 0-3.5-.1-5.3.3 1.7.6 3.4 1.2 5 .2.6 1.1.4 1-.3-.2-1.4-.4-2.7-.5-4.1l.2.2c.1 1.4.2 2.7.4 4 .1.8 1.5.6 1.5-.2-.1-1.2-.1-2.4 0-3.6.1 1.5.3 3.1.5 4.5.1.7 1.2.5 1.2-.2v-2c.1.8.2 1.6.4 2.4.1.5.9.4.9-.1.1-1.9.3-3.9.5-5.8 0 1.8 0 3.6.1 5.3.1.7.9.6 1 0l.3-2.4v3.6c0 .6.9.7 1 .1.1-.3.1-.6.1-.8v.2c0 .5.8.7.9.1.1-.2.1-.5.2-.8 0 .4 0 .8.1 1.1 0 .4.7.6.8.1l.3-2.1c0 .5 0 1 .1 1.5 0 .4.7.6.8.1l.3-2.1c0 .8 0 1.5.1 2.2 0 .4.7.6.8.1.7-4.7.8-9.5.8-14.2.1-1.3.1-2.5 0-3.8 0-.8.1-1.7.1-2.6 0-.2.1-.4.1-.5.4 7 0 13.9 0 21.1 0 .4.7.6.8.1 1.3-7.8 2.1-16.4.9-24.5.5 2 1 4.1 1.6 6.1.1.8.2 1.5.3 2.3.5 5.2.1 10.5.5 15.7 0 .5.8.6.9.1.9-3.7 1-7.6.8-11.5.1-.1.1-.2.1-.3l-.3-3.9v-.2l-.3-4.2.6 2.7c1.1 5.6 1.7 11.3 2.4 17 .1 1.1 1.7 1.1 1.7 0 0-.8-.1-1.6-.1-2.4h.1c.1.8.2 1.6.2 2.4.1.5.7.5.8 0 .5-4.1.6-8.4.3-12.7 0-.8.1-1.6.1-2.5v.1c.1.8.1 1.6.1 2.4.2 4.4-.3 8.8.2 13.1.1.4.7.6.8.1.3-1.2.6-2.5.7-3.9.1.9.3 1.8.4 2.7.1.7 1.1.5 1.1-.2v-4.8c.2 1 .3 2 .6 3 .1.6 1 .4 1-.1.2-6.6-.4-15.2-2.2-22.2.8 2.5 1.4 5.1 1.8 7.7.9 5.5.9 11.1 1 16.7 0 .5.7.6.8.1.5-2.1.8-4.2.9-6.4.2 1.9.4 3.8.5 5.8 0 .2.2.4.4.4.1.4.8.4.9-.1.1-1.2.3-2.3.4-3.5.2 0 .4 0 .6-.1.1 1.3.1 2.6.2 3.9 0 .6 1.1.8 1.2.2 0-.2 0-.4.1-.6.1 1 .2 2.1.3 3.1.1.5.7.5.8 0v-.4c.1.3.6.4.7 0 1-5.2 1-11 .3-16.6.1 0 .1 0 .1-.1.1.8.3 1.6.3 2.3.5 4.6.4 9 .2 13.5 0 .7 1.1.8 1.2.2 1.2-4.1 1.1-8.4.7-12.7.8 3.4 1.6 6.8 2.1 10.3v.4c0 .3.2.4.4.4 0 .3.1.5.1.8 0 .2.2.4.3.4v.1c0 .6.7.6.9.1.6-1.6 1-3.3 1.3-5 0 1.7.1 3.4.1 5.1 0 .5.7.6.8.1.1-.5.2-1.1.3-1.6v.8c0 .7 1 .8 1.2.2 0-.2.1-.3.1-.5.1 1.8.3 3.6.4 5.3 0 .5.6.6.8.2 0 .6.8.7 1 .1.2-.7.4-1.3.6-2l.3 6.3c0 .6 1 .8 1.1.2.1-.4.1-.9.2-1.3V77c0 .4.3.6.6.7.2.3.5.4.4 1.1-.1.1-.2.2-.3.4-.3.5-.4 1.2-.4 1.8v.1c-.9 2.2-1.2 2.1-1 4.4.2.4.6.7.9.9-.1.9-.5 1.7-1.1 2.4-.2.5-.4 1-.5 1.6-.2 1.2.7 1.6.3 3.2-.3 1-1.2 1-1.4 2.2-.2 1.3.2 2.3 1 3.1-1.1 1.8-1.2 3.8.4 5.5.5.5 1.4 0 1.2-.7-.5-1.4-.4-2.8.5-4.2.4-.6.4-1.2-.2-1.6-2.7-2 .9-2.7 1-3.9 0-.4-.2-2.4-.2-2.6.2-1.4.9-2.4 1.3-3.6.1.2.2.4.2.7 0 .6-.6.9-.7 1.6-.2 1.1-.5 1.5-.2 2.6.2.9 1.3 1.5 1.5 2.2.3.9-.1.9-.6 2.1-.4.9-.7 1.7-.5 2.7.1.7.4 1.4.8 1.9.3.3.5.5.7.6l-.1.1c-1.5 2.1-1.6 4.5-.4 6.3-.7.9-1.2 1.9-1.2 3.2 0 .7.3 1.6.6 2.2.1.1.4.6.8.9-.1.3-.2.6-.2.9-.2.8-.3 1-.2 1.8.1 1.1.6 2 1.2 2.7-.8 1.6-.8 3.5.1 5.1-.8 1.4-.8 3.1.1 4.5-.8 2.5 2.6 4.4 4.1 2 .2-.4.5-.8.7-1.2.5-.8.4-2.2-.4-2.8-.1-.1-.2-.3-.3-.4 1.5-1.1 1.5-3 0-4.1 0-.4 0-.8.1-1.2 1.6-1.1 1.4-3 0-4.1-.9-.7.3-2.6.1-3.7-.2-1.3-2.4-2.8-.9-3.9.2-.1.3-.3.5-.4.3.4.5.9.7 1.5.2.7 1 1 1.6.7-.6 1-1 2.1-.5 3.5.2.7.7 1.2 1.2 1.6-.4.9-.7 2.3-.6 2.9.2 1.2.9 2 1.7 2.6-.3 1.7-.9 2.9.8 4.5.6.6 2.1 1.6 3 1.6 1.5-.1 2.5-1.7 1.7-3-.9-1.7-.7-2.8-.5-4.7.1-1.1-.9-2-1.8-2.4 1.1.4 1.4-2.1 1.1-3.2-.1-.5-1-1.3-1.1-1.6 0-.3 1-1.5 1.3-2.1.1-.2.2-.5.3-.7.4.9 1 1.7 1.1 2.7.1 1.6-.9 2.7-.1 4.4.2.5 1 1 1.3 1.5-.1 0-.2.2-.2.9-.1 1.5-.5 2.2.4 3.7.3.6.8.9 1.4 1.1-.1.8.3 1.5 1 2 .5.3.9.6 1.2.7.1.5.4.9.9 1.4.3.3.7.4 1.1.1 1.1-.6 1.3-1.1 1.6-2.3.2-.8-.1-1.8-.9-2.2h-.1c.1-.2.3-.4.4-.6.7-.9.9-2.7-.4-3.2-.1-.1-.2-.1-.3-.2.1-.3.2-.5.2-.8.1-.6.1-1.2-.1-1.8.2-.4.4-.9.5-1.4.2.3.6.6.9.8-.1.2-.1.6-.3 1.2-.3 1.7.4 3.4 2 4.2.3.1.6.2 1 .2.1.2.3.4.4.6.4.4 4.2 1.9 4.1.6 0 1 1.2 1.8 2.1 1.2.1-.1.3-.2.4-.3.6-.5.9-1.1.8-1.9-.1-.8-.5-1.3-.9-1.7v-.4c0-.9-.2-1.8-.6-2.6-.2-.4-.8-.8-.9-1.2v-.1c.5.4.8.1.9-.8.1-.1.1-.2.1-.3.9.8 2.1 1 3.3 1-.6 1.3 1.2 2.7 2.2 1.5.9-1.1 1.2-1.9 1.3-3.2.8-.5 0-1.2-.8-1.2zm-135-23c-.1 1.3 0 4.2-1.5 4.8-.5.2-1 .6-1.4 1 .3-.8.4-1.8.3-2.8 1.9-1.3 2.3-3.7 1.5-6.1.6-.4 1.1-1 1.5-1.6.2.7.6 1.3.9 2.1.1.2.2.4.3.5-.9.4-1.6 1.1-1.6 2.1zm1.7-9c-.3.5-.3 1-.3 1.5-.2.1-.3.3-.4.5 0-.6-.4-1.3-.4-1.8.1-.1.2-.2.4-.3.4-.3.8-.4 1.2-.6-.3.2-.4.5-.5.7zm3.2-8c-.2.1-.3.2-.5.3.3-.9.4-1.6.4-2.3.2.2.3.5.5.7-.1.5-.3.9-.4 1.3zm.3-8.8c-.1-.1-.2-.3-.3-.4 2-.5 2-2.8 3.4-4.4-.3 1-.4 2-.3 3-.5.2-1 .3-1.4.6-.6.3-1 .8-1.4 1.2zm1.3 46.5c-.1-.2-.2-.5-.3-.7 0-.4.1-.8.1-1.1.4-.5.7-1.1.8-1.7.2.2.4.3.7.4l.1.1c-1.2.6-1.6 1.8-1.4 3zm1.8-9c-1.1.5-1.8 1.6-2 2.8-.2-.2-.3-.3-.5-.4 0-.4 0-.8-.1-1.2 2.6-1 2.9-4.7 0-5.6.7-.8 1.3-1.5 2-2.3-.1 1.1.2 2.3 1.1 3.1-.8 1-1 2.4-.5 3.6zm1.4-9.4c.2-1-.2-1.9-1.3-2.4 0 0 .5-.5 1.2-1.1-.2 1.1 0 2.3.9 3.1-.3.2-.5.3-.8.4zm2.3-11-.2-.2c-.1-.4-.2-.7-.3-1.1 0 0 0-.1.1-.1.2.3.5.6.9.8h.1l-.6.6zm3.7 23.2c.2.2.3.3.5.4.1.1.1.1.2.1-.6.5-1 1.1-1.3 2.1 0-.5-.1-1-.2-1.5.3-.3.5-.7.8-1.1zm-.1 7.4-.3.3c-.1-.2-.1-.3-.2-.5-.4-.5-.7-.9-1.1-1.3.5-.7.8-1.5.9-2.3.1.9.5 1.9 1.4 2.3.3.1.5.2.8.4-.5.3-.9.6-1.5 1.1zM136.8 85l-.3.9c-.1-.1-.1-.2-.1-.3 0-.5.1-1 .3-1.5.1 0 .2.1.3.1-.1.3-.1.5-.2.8zm12.5 6.3c.1.1.2.1.2.1.1.4-.5 1.4-1 2.2v-.1c-.1-.7.7-1.4.8-2.2zm2.2 18.1c-.3-.5-.9-.9-1.5-1.2-.6-.2-1-.3-1.2-.4.2-.1.4-.2.4-.8-.1-.8.5-1.2.3-2.2-.1-.6-.7-1.5-1.1-1.9-.3-.3-.5-.4-.6-.6.3-1.1.8-2.2 1.1-3.4.8 1 .9.6.9 1.8.1 1.5-.8 2.6.1 4.1.4.6 2.5 2.1 2.4 1.7 0 .1-.6 1.8-.8 2.9zm6.4-39.7c.9.6.9.9.9 1.6-.2-.2-.5-.4-.8-.8-.2-.3-.3-.6-.4-.9.2 0 .3 0 .3.1zm-.5 30.4c-.3-.7-.2-1.3.1-2 .4.2.8.3 1.2.5.1.1.2.1.2.1v.6c.1 1.2-.1 2.1.2 3.1-.5-.8-1.3-1.4-1.7-2.3zm2.8 8c-.2 1.7.8 3.1.7 4.6 0 .3-.1.6-.1.9-1.2-1.8-2.9-2.1-2.1-5.6.4-1.7 1.5-2.6 1.1-4.5 0-.1 0-.1-.1-.1.1.1.2.3.3.4.6.7 1.2.9 1.3 1.2.1.6-1 2.4-1.1 3.1zm.7-26.8c-.2-.5.1-2.4-.2-3.3-.5-1.3-1.2-.9-1.3-2.7 0-.2.1-.4.2-.6.1.2.2.3.4.5.8 1 1.2.4 1.8 1.8.5 1.2.1 1.4.2 2.5 0 1.2.4 2.2.8 3.1-.7-.4-1.7-.8-1.9-1.3zm2.4 3.8c-.1-.4-.1-.8-.1-1.2.2.7.4 1.3.5 2.1-.1-.3-.3-.5-.4-.9zm2.2 9.4c-.3-1-.5-1.9-.6-2.8 0-.1 0-.4.1-.7.2.5.4 1 .7 1.7.2.7.3 1.2.5 1.6-.3 0-.5.1-.7.2zm4.6 17.9c0 .2-.1.3-.1.5-.5-.6-.8-.1-1-.7v-.1h1.2c-.1-.1-.1.1-.1.3z" fill="#000000" stroke-width="none" opacity="1"></path><path id="SvgjsPath4756" d="M91.1 36c-1.1 7.7-1.5 15.3-1.6 23.1 0 .2-.3.2-.3 0-.5-7.7.3-15.5 1.7-23.1 0-.1.2-.1.2 0zm-4.6 3.7c-1.4 4.2-2.5 8.5-2.9 12.9 0 .2.3.2.3 0 .7-4.4 1.6-8.6 2.9-12.8.1-.2-.2-.3-.3-.1zm-3.3 1.1c-1.7 5.2-2.6 10.5-2.3 16.1 0 .1.2.1.2 0 0-5.5.7-10.8 2.3-16 0-.2-.1-.2-.2-.1zm-.7-4.3c.1-.2-.2-.2-.3-.1-3.6 8.9-6.8 18.3-4.8 28 0 .1.3.1.3 0-1.2-9.8 1.5-18.8 4.8-27.9zm-5.6 6c-2.7 5.2-4.7 10.7-5.2 16.6 0 .2.3.2.3 0 1-5.8 2.5-11.2 5.1-16.5.2-.1-.1-.3-.2-.1zm-7.4 5c-1 5.3-1.5 10.7-1.2 16.1 0 .1.2.1.2 0 0-5.4.3-10.7 1.3-16 .1-.2-.2-.3-.3-.1zM101.3 36c2.3 6.3 3.8 12.8 5.2 19.4 0 .1.3.1.3 0-.9-6.7-2.8-13.2-5.3-19.4 0-.2-.2-.1-.2 0zm3.6 2.6c1.1 4.2 1.8 8.5 2.5 12.8 0 .2.4.2.4 0-.3-4.4-1.3-8.7-2.5-12.8-.1-.3-.4-.2-.4 0zm8.3 1.2c1.8 5.6 2.8 11.2 3.5 17 0 .2.4.2.3 0-.3-5.8-1.6-11.6-3.6-17.1 0-.2-.3-.1-.2.1zm3.9 7c.3 3.2.5 6.4 1.1 9.6 0 .2.4.2.4 0-.2-3.2-.8-6.4-1.2-9.6-.1-.2-.3-.2-.3 0zm7.3 2.6c.8 2.7 1.5 5.4 2.4 8 0 .1.2.1.2 0-.7-2.7-1.5-5.3-2.3-8-.1-.2-.3-.2-.3 0zm5.8.1c1.1 4 1.9 8 2.8 12.1 0 .2.4.2.4-.1-.5-4.1-1.6-8.2-3-12.1-.1-.1-.3 0-.2.1zM95.5 27.2c0-.1 0 0 0 0-.7 1-1.6 2.3-3 1.9-.7-.2-1.3-.8-1.9-1.1-.8-.4-1.5-.4-2.1.3-.9 1.2-.9 2.9-2.9 2.5-1.1-.2-2.1-.9-3.3-.9-2.5.1-1.8 4.9-4.7 3.5-.7-.3-1.5-1.1-2.4-.6-1 .5-.7 2.1-1.8 2.7-1.6.9-4.4-.5-5.6 1.2-.8 1.1.1 2.6-1.3 3.4-.9.5-2.1.5-2.9 1.2-.8.7-.4 1.4-.3 2.3.4 2.3-1.8 1.8-3.2 2.4-.8.4-1.1 1-1.1 1.8 0 .5.1 1 .2 1.6.1.7.1 1.1-.6 1.7-.4.3-.9.3-1.2.6-.7.5-1.1 1.3-1.2 2.1-.1.5-.1 1 .1 1.5 0 0 .2.7.2.6v.2s-.1 0-.2.1c-.8.5-1.4.5-1.8 1.5-.6 1.4 1.1 2.8-.2 4-1.5 1.4-3.7 1.6-3.5 4.1 0 .6.2 1.3.3 1.9.1 1.2-.3 1.7-1.4 2.2-.7.3-1.3.7-1.2 1.6.2 1.3 1.5 2.2 1.5 3.6 0 1.2-1.1 2.3-1.8 3.2-.5.7-1.1 1.5-1 2.3.1 1.6 2.1 2.3 1 4-.7 1.1-1.9 1.8-2.4 3-.2.5-.2 1-.2 1.5.1 1 .8 1.6 1 2.5.5 2.3-3.7 2.4-3.4 5 .2 1.5 2.2 3.6-.1 4.5-.7.3-1.6.6-1.4 1.5.2 1.1 1.8 1.5 2.1 2.6.3 1.4-1.8 2-2.5 2.8-.6.6-.7 1.4-.2 2.1.4.7 2.9 2 2.4 2.9-.2.3-.9.6-1.1 1-.3.5-.6 1.1-.7 1.7-.1 1.1.1 2 .8 2.8.1.1.2 0 .2-.2-1.4-1.7-.8-4.3 1.2-5.2l.1-.1c-.3-1-1-1.5-1.7-2.1-.4-.3-.8-.7-1-1.1-.5-1.1.5-1.8 1.3-2.4 1.4-.9 2.3-1.9.9-3.4-.3-.3-.7-.6-.9-.9-.8-1.1.2-1.5 1.1-2 .7-.3 1-.8 1-1.6-.1-1.3-1.4-2.5-1-3.9.3-1.2 1.8-1.6 2.6-2.3.5-.4.8-.9.8-1.5 0-.8-.6-1.4-.9-2.1-.4-1.3.1-2.5 1-3.5.6-.7 1.6-1.4 1.8-2.4.3-1.3-.9-1.8-1.3-2.9-.6-2.1 2.5-3.7 2.8-5.8.1-1-.4-1.8-.9-2.6-.2-.3-.4-.7-.5-1.1-.2-1 .5-1.2 1.2-1.6.4-.2.8-.3 1-.7.6-.9.2-2 0-3-.3-2 .6-2.8 2.3-3.8.7-.4 1.5-.9 1.7-1.7.1-.5 0-.8-.2-1.3-.3-.8-.5-1.4 0-2.1.5-.7 1.2-1.1 2.1-1 .1 0 .1-.1.1-.2-.9-1.2-.8-3 .3-4.1.7-.7 1.9-.7 2.2-1.8.2-1-.4-2-.1-3 .4-1.4 2-1.2 3.1-1.6.5-.2 1-.4 1.2-.9.5-1.3-1-2.6.6-3.5 1.3-.8 3.3-.6 3.5-2.6.1-.8 0-1.7.8-2.2.5-.3 1.1-.3 1.6-.3.9 0 1.8.1 2.6-.1.5-.1 1.1-.3 1.4-.8.3-.3.3-.7.5-1 .3-.8.5-1.4 1.6-1.2.3.1.7.3 1 .5 1.4.8 2.4.5 3-1 .5-1.2.9-2.5 2.5-2.3 1 .2 1.9.7 3 .9.7.1 1.3-.1 1.8-.6 1-1.1 1-3.5 3.2-2.2.8.5 1.7 1.3 2.7 1 .5-.1.9-.5 1.2-.8l.3-.3c.1-.2.3-.4.4-.6.7-.1 1.1.2 1.4.7 0 .1.1.1.1 0-.7-.5-1.1-.8-1.7-1zM62.4 55.9c.5-.4 1-.5 1.6-.9 1.4-.9.7-2.8.7-4.1 0-.7.1-1.2.5-1.7.5-.5 1.2-.5 1.9-.8.6-.2 1.1-.5 1.2-1.2.1-.5 0-1 0-1.5 0-.8.3-1.6.8-2.3.9-1.4 2.5-2.2 4.1-2.2.1 0 .1-.1.1-.1-.1-.3-.2-.6-.3-.8-.3-1.5.2-2.1 1.6-1.8 0 .1.1 0 0 0-1-.9-2 .4-1.9 1.4 0 .7.5 1-.2 1.2-.5.1-.9.2-1.4.4-.8.4-1.5.9-2 1.6-.5.7-.9 1.5-1 2.3v.7c0 .8.1.7-.4 1.4s-.4.6-1.1.8c-.3.1-.6.1-.9.3-1.5.6-1.3 2.1-1.1 3.5.1 1.4.1 2.5-1.4 3-.6.2-1.3.4-1.5 1.1-.2.6.2 1.2.5 1.8.2.4.9 1.3.3 1.8-.2.2-.9.2-1.2.4-1.6 1-1.6 2.7-.7 4.1.3.4.4.3.1.7-.3.5-1 .8-1.5 1.2-.5.4-1.1.9-1.4 1.6-.7 2.1 2.9 3.2 1 5.2-.9 1-2.5 1.7-1.6 3.3.5.9 1.5 1.4 1.7 2.4.3 1.2-.6 2.1-1.2 3-.9 1.2-1.4 2.3-.2 3.6 1 1 1.4 1.8.7 3.1-.4.8-1.1 1.5-1.6 2.3-.9 1.3-1.2 2.5-.2 3.8 2.3 3.3-3.1 2.9-2.5 5.6.1.7.7.9 1.2 1.2.2.1.5.2.7.3.3.4.3 1.2 0 1.5-.3.3-.8.5-1.2.6-1.4.8-1.8 1.8-.8 3 .9 1.2 1.8 2.1.8 3.6-.5.8-1.3 1.4-1.9 2.2-.4.5-.7 1.1-.6 1.8.1.4.3.8.5 1.2.1.2.3.4.4.6.3.3.2.7-.1 1.1 0 .5-.2.8-.6 1-1 1-1.4 2.5-.1 3.5.1.1.2-.1.1-.2-.8-.6-1-1.7-.5-2.6.4-.6 1.1-.6 1.5-1.2.6-.8-.2-1.6-.6-2.3-1.6-2.7 1.8-3.6 2.4-5.9.2-.8-.1-1.4-.5-2.1-.3-.4-.8-.8-1.1-1.3-.6-1.2.2-1.8 1.1-2.3 1.1-.6 2.7-1.7.9-2.7-1-.5-2-.9-1.1-2.3.4-.6 1.2-.9 1.7-1.3.8-.6 1.3-1.4.9-2.4-.2-.5-.7-.9-.9-1.4-.4-.8-.2-1.5.2-2.3.5-1 1.3-1.8 1.9-2.7.4-.6.7-1.4.5-2.1-.3-1.3-2.2-1.8-1.8-3.3.5-1.7 3-3 2-5-.7-1.4-2.9-2.4-1.2-4.1.7-.7 1.9-1.3 1.8-2.5-.1-1.3-1.7-1.9-1.7-3.3 0-1.6 2.3-2.5 3.3-3.6 0 0 .1-.1 0-.2-1.9-1.5-1-4.4 1.5-4.5.1 0 .1 0 .1-.1.2-.7-.1-1.3-.5-2-.1-.2-.2-.3-.3-.5-.1-.8-.1-1.1.5-1.6zm-1.7 68.5c.6-.8.9-1.6.1-2.5-.6-.6-2.1-.9-1.1-1.9.4-.3.9-.4 1.2-.9.4-.5.2-1.1-.3-1.4-.2-.1-.4-.2-.7-.2-.9-.3-1.1-1.8-.4-2.4.5-.5 1.1-.9 1.4-1.5.6-1.2-.3-2.3-1.2-3-.4-.3-1.2-1-1.2-1.5 0-.3.4-.7.7-.9.4-.4.8-.7 1.1-1.1.4-.7.2-1.3-.4-1.7-.1-.1-.3-.1-.4-.2-.1-.1-.2-.1-.4-.2-.1-.5-.2-1.1-.3-1.6.1-.4.6-.8.8-1.2.2-.5.3-1 .2-1.4-.1-.7-.5-1-.9-1.5-.3-.3-.4-.1-.2-.7s.6-1.2.8-1.7c.1-.1-.1-.2-.2-.1-.4.8-.8 1.5-1.1 2.3 0 .1 0 .2.1.2 1.3.5 1.7 1.9 1 3.1-.3.5-.8 1-.9 1.6-.2 1 .7 1.1 1.3 1.7 2.1 1.8-2.9 2.8-.8 4.7.6.6 1.5.9 1.9 1.8.7 1.5-.5 2.1-1.3 3-.5.6-1.1 1.5-.5 2.2.2.2.5.3.7.5.2.1.8.2 1 .4.7.8 0 1.1-.4 1.5-.6.4-1.3.7-1.3 1.4v.1c.7.3 1.5.6 1.9 1.3.6.9-.1 1.4-.5 2.2-.2.3-.4.5-.4.9.1 1.1 1.6 1.4 1.9 2.4 0 .1.1 0 .1 0-.3-1.8-2.5-1.9-1.3-3.7zm8.2-30.7c0-.1 0-.2-.1-.2-2.3 0-.6-3.5-.8-4.6-.1-.6-.4-.9-.8-1.2-.5-.5-.9-.9-.7-1.7.1-.4.3-.8.4-1.1.3-.8.6-1.6.1-2.4-.4-.6-.9-.8-1.2-1.5-.4-1.1-.1-2.3.8-3.1.1-.1 0-.2-.1-.2-1-.2-1.7-.9-2-1.9-.3-1.3.4-1.8 1-2.7.7-1.2-.8-2-.4-3.3.3-1 1.4-1.8 1.4-2.9 0-.5-.3-.9-.5-1.3-.7-1.4-.5-2.8.8-3.8.1-.1 0-.2-.1-.1-1.2.8-1.7 2.3-1.1 3.7.2.5.7 1 .7 1.6 0 .6-.3 1.1-.6 1.5-.4.6-.9 1.2-.9 1.9-.1 1.2 1.2 1.5.4 2.9-.3.6-.8.9-.9 1.6-.1.6 0 1.2.4 1.8.3.6.8.8 1.3 1.2.1.1.1.1.2.1 0 0-.1.1-.1.3-.1.2-.3.5-.4.8-.2.7-.3 1.5 0 2.1.4 1 1.6 1.5 1.5 2.6-.1.9-.7 1.6-.8 2.5 0 .5.1.8.4 1.2.5.6 1.1 1 1.2 1.9.1.7-.4 1.5-.5 2.2 0 .5 0 1.1.3 1.5.2.4.8.6.8.8 0 .2-.7 1.1-.8 1.4-.2.4-.3.8-.3 1.2-.1.5 0 1 .2 1.5.3.7.6.7.6 1.7 0 .9-.4 1.2-.6 1.9-.1.3-.1.6-.1 1 .2 1.4 1.9 3 .7 4.4-.1.1 0 .2.1.1.5-.5.6-1.1.5-1.8-.1-.5-.3-.9-.5-1.3-.2-.5-.6-1.2-.6-1.8 0-.5.3-1 .6-1.5.4-.7.4-1.3 0-2-.5-.9-.8-1.6-.5-2.6.1-.9.6-1.7 1-2.4zm-17 2.5c-.1 0-.1.2 0 .2 1.1-.4 1.1-1.5.8-2.5-.2-.8-.7-1.6-.2-2.5.5-.8.7-.5 1.2-1 .3-.3.4-.5.3-1-.2-.9-.9-1.5-.9-2.5 0-1.4.9-1.8 1.7-2.7.7-.8.5-1.6 0-2.5-.3-.6-.7-1.1-1-1.7-.2-.6-.4-1.2-.1-1.8.2-.4.7-.7 1-1 .7-.7.4-1.4-.1-2.1-.5-.6-1-1.1-.6-2 .2-.4.5-.7.8-.9.4-.3.8-.6 1-1.1.1-.3.2-.6.1-.9.1-.2 0-.2-.2-.4-.6-1-.6-2.1.7-2.6.1 0 .1-.2 0-.1-.9.2-1.4 1.2-1.2 2.1.2.9 1.2 1.6.3 2.5-.4.4-1 .8-1.3 1.2-.6.8-.2 1.5.3 2.2.6.7.8 1.4.1 2.2-.2.2-.5.4-.7.6-.3.4-.4.8-.4 1.2.1 1.3 1.2 2.2 1.6 3.4.3 1.3-.6 1.6-1.3 2.4-.4.5-.6 1-.7 1.7-.1.6 0 1.2.2 1.8l.3.6c.3.8.1 1.3-.5 1.5-.2.2-.3.2-.6.5-1 1.5 1.4 4.5-.6 5.2zM43 80.5c.1 0 .1-.1.1-.2-.3-1-.6-2.1-.4-3.1.3-1.2 1.4-2.5 2.8-1.8.1 0 .2 0 .2-.1-.3-.9-.5-1.8-.5-2.7 0-.5.1-1.1.4-1.5.5-.8 1.2-.7 1.9-1.1.5-.3.6-.7.7-1.2.2-1 .2-2 .6-3 .5-1.1 1.4-1.8 2.2-2.7.4-.4.6-.9.6-1.5s-.3-1.2-.5-1.8c-.2-1 .2-1.4.9-2.2l.5-.5c.8-1.6-1.3-3.5.6-4.7 1.2-.8 2.4-.7 2.4-2.5 0-1-.3-2 .5-2.9.5-.6 1.3-1 2-1.3 1.1-.5 2.3-1.1 2.8-2.2.4-.9.3-2 .6-2.9.5-1.4 1.8-1.5 3-1.9.5-.2 1-.4 1.3-.8.2-.3.3-.6.3-1v-.8c0-1.1.5-1.5 1.6-1.2 0 0 .1 0 .1-.1-.4-.6-1.2-.3-1.6.2-.3.4-.2.9-.3 1.4-.2 1.6-1.2 1.8-2.5 2.2-1.2.3-2.1.8-2.3 2.1-.2.8-.1 1.7-.5 2.5-.4.9-1.2 1.4-2 1.8-1 .6-2.3 1-3 2-1 1.4.3 3.3-1.2 4.5-.9.7-2.2.5-2.4 2-.1.6.1 1.1.2 1.7.1.5.3 1.1.1 1.5-.2.6-.9.9-1.3 1.3-.7.9 0 2 .2 2.9.4 1.5-.7 2-1.6 2.9-.5.6-.9 1.2-1.2 1.9-.3.7-.4 1.4-.5 2.2-.1.9-.2 1.4-1.1 1.8-.3.2-.7.2-1 .4-.9.7-1 1.9-.9 3 0 .2.5 1.6.4 1.7-.1 0-1-.1-1.2 0-1.2.4-1.7 1.6-1.7 2.8 0 .6.6 2 .3 2.4-.1.1-1.2.4-1.4.6-.9.6-1.5 1.7-1.6 2.8-.1.6 0 1.2.2 1.7.3.8 0 .5-.7.9-1.2.6-1.8 2-1.5 3.4.3 1.4 1.2 2.6 0 3.8-.5.5-1.1.7-1.3 1.5-.3.9.1 1.8 0 2.7-.1 1.5-.7 2.7-1.7 3.8-.1.1 0 .2.1.1.9-.9 1.6-2 1.8-3.3.1-.7 0-1.3 0-1.9-.1-.7-.1-1.4.5-2 .2-.3.5-.4.8-.6.8-.8.9-1.5.6-2.5-.2-.7-.6-1.4-.6-2.1-.1-1.5 1.1-2.7 2.5-2.8.1 0 .2-.1.1-.2-1.3-2.1.1-5.2 2.6-5.4zM92.8 32c-1.2.4-2-1.5-3 0-.6.9-.5 1.9-1.8 2.3-.7.2-1.5.2-2.2.5-.4.2-.6.5-.9.8-.1.1-.2.3-.2.4-.6.3-1.1.2-1.6-.2-.3-.1-.3-.2-.6-.2-1-.2-2 .4-2.4 1.3 0 .1.1.1.2.1.7-1.2 1.8-1.3 3-.7.4.2.6.4 1.1.3.3-.1.5-.5.7-.7.6-.9 1.3-.9 2.3-1.1.9-.2 1.7-.3 2.2-1.2.2-.3.2-.7.4-1 .1-.7.7-.9 1.6-.6.1.1.3.2.4.2.4.1.5.3 1 .1 0-.1-.1-.3-.2-.3zm16-.8c-.4-.6-.3-1.2-1-1.6-.5-.3-1.1-.3-1.6-.1-.4.1-.8.3-1.1.5-.1.1-.7.6-.8.6 0 0-.4-.9-.6-1-.5-.4-1.1-.6-1.7-.6-1.6.1-2.5 1.7-3.2 2.9 0 .1.1.2.1.1.5-.9 1-1.9 2-2.5 1.2-.6 3.1-.2 3.1 1.4 0 .1.1.1.2.1.7-.6 1.6-1.4 2.6-1.3.8 0 1.2.7 1.6 1.4.1.1.1.3.2.4.6.8 1.7.2 2.5.6.1 0 .2-.1.1-.1-.7-.6-1.9 0-2.4-.8zM136.2 49c.3 1.3 1.1 1.6 2.3 1.6.6 0 1.2 0 1.7.2.7.3 1.1 1 1.4 1.7.6 1.1 1.1 2.3 1.7 3.4.1.1.2 0 .2-.1-.4-.9-.8-1.7-1.2-2.6-.4-.8-.7-1.8-1.4-2.3-1.5-1.2-4 .5-4.5-2.2-.2-1.3-.5-2.1-1.9-2.3-1-.1-2.1.1-2.8-.8-.6-.7-.2-2-.5-2.8-1.1-2.3-4.2-.1-6-.7-1.7-.5-.8-3-2.3-3.8-1.2-.6-2.5-.1-3.7.2-2.6.7-2.2-2.6-4.1-3.4-1.2-.4-2.5-.1-3.2.9-.1.1 0 .2.1.1 1.4-1.8 3.7-1 4.5.8.4.9.8 2 1.9 2 1.7.1 3.7-1.7 5 .2.7 1 .2 2.5 1.5 3.1 2.4 1 5.9-2.3 6.3 2 .1.9.2 1.8 1.2 2.2.6.2 1.2.2 1.7.2.8.1 1.4.3 1.8 1.1.3.3.2.8.3 1.3zm5.1 75.7c0-.7.2-1.3.3-2 0-.4 0-.6-.2-1-.6-1-1.2-.6-1-2.4.1-.6.4-1.1.3-1.8 0-.6-.2-1.2-.4-1.8-.5-1.6-1.3-3.8.4-4.9.1-.1.1-.2 0-.2-2.8-.6 0-4.6.1-6.1 0-.7-.2-1.1-.6-1.6-.5-.6-.5-.5-.5-1.4 0-.7 0-.7.3-1.2.2-.4.4-.8.5-1.2.2-.8-.1-1.5-.4-2.2-.5-1.5-.4-2.5.3-3.9.5-1.1.9-2.3-.1-3.2-.5-.4-1.3-.9-1.2-1.8 0-.4.5-1 .7-1.4.3-.6.5-1.2.3-1.9s-.8-1.2-1.1-1.9c-.7-1.3 0-2.2.7-3.3.7-1 .9-1.9-.2-2.7-.9-.8-.9-1.4-.4-2.5.1-.4.3-.7.4-1.1.1-.7-.1-1.3-.5-1.9-.3-.4-1.9-1.5-1.9-1.9 0-.1.5-.5.7-.7.2-.3.4-.7.5-1.1.4-1.7-.8-3.1-2.4-3.5-.1 0-.1.1 0 .1 2.5.6 3.1 3.7.8 5.1-.1 0-.1.2 0 .2 1.5 1 3 2.2 2.3 4.2-.3.8-.9 1.6-.4 2.4.1.2.3.4.5.5.9.8 1 1.4.4 2.5-.4.7-1 1.4-1.1 2.2-.1.8.3 1.4.7 2 .3.5.7 1 .8 1.6.1.9-.4 1.6-.7 2.3-.2.5-.4 1-.2 1.5.1.3.3.5.5.7.3.2.7.4 1 .7.5.6.4 1.1.2 1.7-.3 1-.9 1.8-1 2.8-.1 1 .4 1.9.6 2.9.5 1.6-.7 2.2-.9 3.6-.2 1 .6 1.4 1 2.1 1.2 2.1-1.9 4.3-.7 6.6.1.2.8.8.8.8s-.5.6-.6.8c-.2.3-.2.7-.3 1.1-.1 1.3.4 2.4.7 3.6.2.6.2 1.1.2 1.8-.1.6-.3 1.1-.4 1.7 0 .3-.1.6 0 .9.2.5.7.8 1 1.2.5.7.2 1.4 0 2.2-.2 1.2.2 2.3.9 3.2.1.1.4 0 .3-.1-.6-.7-.9-1.5-1-2.3zm8.5-6.6c-.6-1.3-1.2-2.1-.8-3.6.4-1.3 1.2-2.7.7-4.1-.2-.6-.6-.8-1.1-1.1-1.2-.7-1.2-1.5-.7-2.7.4-.8 1-1.7.9-2.6-.2-1.4-2-1.2-2.5-2.3-.8-2 1.9-4.4.4-6.3-.3-.4-.8-.6-1.3-.8-1.7-.8-1.3-2.2-.6-3.6.4-.9 1-2.2.3-3.2-.3-.4-.7-.5-1.1-.6-1.7-.6-1.3-2.2-.5-3.4.6-1 1.7-2.1 1.4-3.4-.1-.4-.3-.7-.6-1-.5-.4-.7-.4-1.2-1-.6-.6-.7-.6-.4-1.3.1-.3.3-.7.5-1 .5-.8 1.2-2 .5-2.9-.5-.7-1.6-.5-2-1.2-.5-.9.5-2.2.7-3 .3-1.1-.1-2.1-.9-2.8-.6-.5-1.1-.5-1.8-.7-.5-.1-.4.1-.2-.6.1-.5.3-.9.4-1.4.2-1.2-.2-2.8-1.5-3.3-.3-.1-.6-.1-.8-.1-1.8-.6-1-1.8-.5-2.7.3-.5.7-1.2.4-1.8-.2-.7-1.2-1.1-1.7-.5 0 .1 0 .2.1.1h1.1v1.7c-.1.2-.3.5-.4.7-.2.3-.3.6-.4 1-.1.5-.1 1.1.3 1.5.6.6 1.6.2 2.3.8 1.4 1.3.6 3.4.1 4.8 0 .1.1.2.2.2 1.1-.3 2.3.3 2.9 1.3.6 1 .2 1.9-.2 2.9-.3.8-.6 1.6-.2 2.4.2.3.4.4.7.6.6.4 1.2-.7 1.5 1.1.1.4-.2 1-.3 1.4-.4.8-1.2 1.7-1 2.7.3 1.2 1.9 1.1 2.4 2.2.6 1.3-1.3 3-1.8 4.1-.3.7-.5 1.5-.2 2.2.1.3.3.5.6.7.3.2.4.1.7.3 1.1.4 1.4 1.1 1.1 2.2-.4 1.7-2.4 3.9 0 5.1.7.3 1.4.5 1.7 1.2.2.6.2 1.2 0 1.7-.2.9-.6 1.8-.8 2.8-.1.6-.1 1.3.3 1.8.8 1 2.6.8 2.2 2.5-.2 1.2-1.8 2.9-1 4.2.5.7 1.4.7 1.8 1.4.5.9.2 2.1-.2 3-.5 1.3-.9 2.4-.3 3.7.4.9 1 1.6 1 2.6 0 .8-.3 1.6-.5 2.3-.3 1.1-.5 2.1.2 3.1.1.1.3 0 .2-.1-1-1.6.2-3.3.4-5-.1-1.1-.2-1.7-.5-2.2zm7.6 1.8c-.9-1-.2-1.8-.5-2.9-.3-1.4-2-1.7-1.7-3.4.2-1.2 1-2.2 1.3-3.4.2-.8.1-1.5-.4-2.1-.2-.3-.5-.4-.7-.7-.8-1.1-.4-1.8.1-2.8.3-.6.6-1.1.7-1.8 0-.4 0-.9-.3-1.3-.4-.5-.9-.4-1.4-.7-1.7-1.2.1-3.6.3-5 .1-.8-.1-1.6-.8-2-.6-.4-1.2-.1-1.8-.9-.3-.4-.3-.9-.3-1.4 0-.9.4-1.7.6-2.6.2-.9.4-2-.3-2.8-.3-.4-.7-.6-1.1-.9-1-.8-1-1.7-.7-2.8.3-.9.8-1.9.8-2.9-.1-1.1-1-1.2-1.8-1.7-2.2-1.3.9-4.7-1.1-6.2-.5-.4-1.2-.5-1.7-.8-1.4-.8-.9-2-.7-3.2.1-1.1-.1-1.8-1-2.4-.6-.4-1.4-.6-1.9-1.1-.9-1 .3-2.1.4-3.1.1-1.1-.5-2-1.4-2.5-.1-.1-.2.1-.1.1 1.2.7 1.5 2 1 3.2-.2.5-.6.9-.5 1.5.1.8.8 1.2 1.4 1.5.6.3 1.4.6 1.7 1.3.5.9 0 1.9-.1 2.8-.1.8.1 1.5.8 2 .5.3 1.2.4 1.7.7.9.5 1 1.5.8 2.4-.1.9-.5 1.9-.3 2.8.2 1.1 1 1.1 1.8 1.6 1.4.9.3 2.7 0 3.8-.2.8-.4 1.6.1 2.3.2.3.5.5.8.7.4.3.9.5 1.2 1.1.4.7.2 1.6 0 2.3-.3 1.1-.8 2.1-.6 3.3.1.4.2.8.5 1.1.4.4.9.4 1.4.6 3 1.6-1.6 5.2.9 7.2.7.5 1.4-.4 1.6 1.4.1.5-.2 1.1-.4 1.6s-.6 1-.7 1.6c-.4 1.7 1.2 1.8 1.6 3.2.6 2.1-2.5 4.3-1 6.3.2.3.5.5.7.7.4.5.7 1.1.7 1.7 0 .6-.2 1.2.1 1.8.1.2.3.3.4.5.7.9.6 1.5.5 2.5-.1 1-.3 2-.4 3 0 .1.2.2.2 0 .2-1 .3-1.9.4-2.9.1-.5.3-1.2.2-1.7-.3-.1-.6-.3-1-.6zm15.4-10c-.2-.7-.5-1.3-.5-2 0-.8.4-1.4.5-2.2 0-.6-.1-.8-.5-1.1.1.1.2.5.1 1.4 0 .3-.2.6-.3.9-.6 2.1 2.3 5.8-.2 7.2-.2.1 0 .3.1.2 1.7-.9 1.2-2.9.8-4.4zm-.6-5.3-.1-.1c-.5-.5-.9.6-1.1-1 0-.2.1-.6.2-.8.1-.3.2-.6.2-1 0-.7-.3-1.1-.8-1.6-.7-.5-1.3-1-1-2 .1-.5.4-.9.7-1.4.3-.5.6-1.1.5-1.8-.1-.7-.6-1-1.2-1.3-.7-.4-1.3-.5-1.6-1.4-.2-.6-.1-1.4-.1-2 0-.8-.1-1.4-.7-2-.7-.7-1.2-1.2-1-2.3.1-.5.2-1 .1-1.5-.2-.8-1-1.1-1.3-1.8-.6-1 .1-2.3.2-3.3.1-.7-.1-1.3-.6-1.8s-1.3-.8-1.5-1.7c-.2-.7.1-1.4.3-2 .2-.7.3-1.4-.2-2-.3-.3-.7-.4-1-.6-.9-.5-1.3-1.1-1.7-2.1-.3-.8-.7-1.6-1.4-2.1-.2-.2-.8-.2-1-.4-.5-.4-.3-2.2-.3-2.7 0-.1-.1-.1-.1-.1-1.4.1-2.5-.9-2.8-2.2-.3-1 0-1.8 0-2.8 0-.8-.2-1.4-1.1-1.5-1.2-.2-3.2.9-3.7-1-.2-1 .2-2.3-.7-3.2-1-1-2.8-.4-3.2-2.1-.2-1 .1-2.1-.4-3.1-.3-.7-.9-.9-1.6-.9-.3 0-.6.1-.9.2-1.1.1-1.6-.5-1.9-1.3-.3-1-.5-2-.8-3l-.1-.1c-2 0-3.6-1.6-3.6-3.7 0-.1-.1-.2-.2-.1-.7.3-1.5.7-2.2.6-.5 0-.8-.1-1.1-.5-.6-.3-.8-.8-.7-1.5-.1-.4-.2-.7-.6-.9-1.5-1-3.1 1.2-4.6 0-.9-.7-1.2-2-2.4-2.3-.9-.2-1.8.4-2.7.2-1.4-.3-2.3-1.6-2.4-2.9 0-.1-.1-.1-.1-.1-.5.2-1.1.4-1.6.5-.7.1-.4.2-.7-.3-.2-.6-.3-1.1-.8-1.5-1.1-.9-2.6-.6-3.5.4-.1.1 0 .2.1.1 1.5-1.7 4.2-.5 3.9 1.7 0 .1.1.1.1.1.4-.1 1.6-.8 2-.6.4.1.3.5.5.9.3.9 1.1 1.7 2 2 1.2.4 2.7-.5 3.7.2.8.6 1.1 1.6 1.9 2.1.8.5 1.6.2 2.5-.1 1.2-.4 1.7-.5 2.5 1.1.2.5.2.9.7 1.3.5.4 1.2.5 1.8.4.2 0 1.4-.5 1.6-.5.2.1.3.9.4 1.2.3.9 1 1.7 1.9 2.1.3.2.7.2 1 .4.4.2.3-.2.7.4.3.4.3 1.2.4 1.6.2.7.3 1.9 1 2.3 1.1.7 2.6-.9 3.5.4.9 1.4-.3 3.5 1.2 4.5.4.2.8.3 1.2.5 1.1.3 1.6.8 1.8 2 .1.8-.1 1.8.5 2.4.5.6 1.4.5 2.1.4 1.2-.2 2-.5 2.2 1.5 0 .6-.1 1.1 0 1.7.1 1.1.6 2.1 1.5 2.7.3.2 1.1.3 1.4.5.6.5.3 2.1.3 2.7 0 .1.1.1.1.1 2.3-.2 2.2 3.2 3.7 4.2.6.4 1.3.5 1.6 1.2.2.5 0 1.2-.2 1.6-.2.7-.4 1.4-.2 2 .2.7.8 1 1.2 1.4 1.2 1.1.7 2.2.5 3.6-.1.6-.1 1.1.1 1.6.1.2.3.4.5.6.7.7 1 1.4.8 2.4-.1.6-.2 1.1 0 1.7.1.3.4.5.6.7.7.6.9 1.2 1 2.1 0 1.6-.1 2.6 1.5 3.4.6.3 1.2.5 1.4 1.2.2.6-.2 1.2-.4 1.7-.3.6-.7 1.2-.8 1.9 0 .4.1.8.3 1.1.2.2.4.4.7.6.8.7 1 1.2.8 2.2-.1.5-.4 1.1-.1 1.6.1.2.3.3.5.4.5.8.8.5.9.6zm-5.3 12.9c-.5-.4-1.2-1-1.2-1.8 0-.4.4-.9.5-1.3.4-1.1.2-2-.4-3-.4-.6-.8-1.1-1.1-1.7-.5-1 .2-1.7.5-2.7.1-.4.1-.8-.1-1.2l-.6-.6c-.6-.7-.7-1.4-.5-2.2.3-1.1 1.1-2.4.5-3.5-.2-.4-.5-.6-.9-.8-.6-.3-1.2-.3-1.5-1.1-.2-.6.1-1.4.3-2 .5-1.1 1.3-2.3.5-3.5-.9-1.4-2.9-1.4-2.7-3.5.1-1 .8-2.3.1-3.2-.6-.8-1.7-.7-2.6-.7-.5 0-.8 0-1.2-.4-.3-.4-.1-.5 0-1 .2-.6.4-1.3.3-2-.1-1-.8-1.5-1.7-1.7-.7-.2-.9-.1-1.4-.7-.5-.6-.4-.8-.2-1.5.2-.5.5-1.1.5-1.7 0-1.5-1.7-1.2-2.3-2.3-.7-1.3 1.1-2.5.8-3.8-.4-1.5-2.7-.8-2.7-2.7 0-1 .7-2.3.1-3.2-.2-.3-.5-.3-.9-.5-.8-.4.3.7-1-.8-.7-.8-.7-.6-.4-1.4.1-.2.2-.5.2-.7.1-.7-.2-1.6-1-1.5-.1 0-.1.1 0 .1 1.8-.2-.1 3.1.5 4 .2.4.6.3 1 .5.7.2 1.5.2 1.6 1.1 0 .3-.1.7-.1 1-.1.8-.5 1.9 0 2.6.3.5.8.5 1.3.7 1.6.7 1.1 1.6.6 2.8-.3.8-.7 1.6 0 2.3.5.6 1.5.6 1.9 1.3.4.8-.2 1.7-.4 2.5s-.2 1.5.6 2c.9.5 2.3.1 2.7 1.4.3 1-.2 2.2-.7 3v.2c.6.9 1.6.7 2.5.7 1.5 0 2 .9 1.7 2.3-.1.6-.3 1.2-.3 1.9.1 1.3 1.3 1.7 2.2 2.4 2 1.6-.4 3.6-.4 5.5 0 .4.1.8.3 1 .6.8 1.7.5 2.1 1.5.6 1.7-1.1 3.1-.5 4.8.1.2.2.4.3.5.6.7.7.4.8 1.5.1.9 0 .7-.3 1.5-.1.3-.2.6-.2.9.1 1.2 1.1 2.1 1.6 3.1.6 1.2 0 2.1-.3 3.3-.2.5-.2 1 0 1.5.4.7 1.4 1 1.9 1.7.9 1.1 1.2 2.5 1 3.9 0 .2.2.3.3.1.2-1.3 0-2.6-.7-3.7-.1-.4-.5-.8-.9-1.2z" fill="#ffffff" stroke-width="none" opacity="1"></path></g><g id="svga-group-glasses-single-move" transform="matrix(1,0,0,1,0,0)"><g id="svga-group-glasses-single"></g></g></g></g></g><rect id="svga-credit-rect" width="200" height="15" x="0" y="185" fill="#ecf0f1" opacity="0.5" style="display: none;"></rect><text id="svga-credit-text" font-family="Avenir Next, Roboto, Helvetica, Arial, sans-serif" font-size="10px" text-anchor="start" font-weight="400" size="10px" anchor="start" weight="400" fill="#333333" x="33.440277099609375" y="182.32972049713135" style="display: none;"><tspan id="SvgjsTspan4411" dy="13" x="33.440277099609375">Created on AvatarMaker.com</tspan></text></g><defs id="SvgjsDefs4363"><linearGradient id="SvgjsLinearGradient7323" x1="79.8873" y1="77.8893" x2="79.8873" y2="103.4741" gradientUnits="userSpaceOnUse" class="svga-on-canvas-glasses-gradient-single-0-null"><stop id="SvgjsStop7324" stop-opacity="1" stop-color="#ffffff" offset="0.0708" ></stop><stop id="SvgjsStop7325" stop-opacity="0" stop-color="#ffffff" offset="1" ></stop></linearGradient><linearGradient id="SvgjsLinearGradient7327" x1="34.1696" y1="77.8893" x2="34.1696" y2="103.4741" gradientTransform="matrix(-1 0 0 1 154.0177 0)" gradientUnits="userSpaceOnUse" class="svga-on-canvas-glasses-gradient-single-1-null"><stop id="SvgjsStop7328" stop-opacity="1" stop-color="#ffffff" offset="0.0708" ></stop><stop id="SvgjsStop7329" stop-opacity="0" stop-color="#ffffff" offset="1" ></stop></linearGradient><linearGradient id="SvgjsLinearGradient7382" x1="81.4438" y1="79.8911" x2="81.4438" y2="97.9183" gradientUnits="userSpaceOnUse" class="svga-on-canvas-glasses-gradient-single-0-null"><stop id="SvgjsStop7383" stop-opacity="1" stop-color="#ffffff" offset="0.0708" ></stop><stop id="SvgjsStop7384" stop-opacity="0" stop-color="#ffffff" offset="1" ></stop></linearGradient><linearGradient id="SvgjsLinearGradient7386" x1="38.2938" y1="79.8911" x2="38.2938" y2="97.9183" gradientTransform="matrix(-1 0 0 1 156.7 0)" gradientUnits="userSpaceOnUse" class="svga-on-canvas-glasses-gradient-single-1-null"><stop id="SvgjsStop7387" stop-opacity="1" stop-color="#ffffff" offset="0.0708" ></stop><stop id="SvgjsStop7388" stop-opacity="0" stop-color="#ffffff" offset="1" ></stop></linearGradient><linearGradient id="SvgjsLinearGradient7437" x1="82.4213" y1="74.4733" x2="82.4213" y2="102.383" gradientUnits="userSpaceOnUse" class="svga-on-canvas-glasses-gradient-single-0-null"><stop id="SvgjsStop7438" stop-opacity="1" stop-color="#ffffff" offset="0.0708" ></stop><stop id="SvgjsStop7439" stop-opacity="0" stop-color="#ffffff" offset="1" ></stop></linearGradient><linearGradient id="SvgjsLinearGradient7441" x1="38.0028" y1="74.4733" x2="38.0028" y2="102.383" gradientTransform="matrix(-1 0 0 1 155.3625 0)" gradientUnits="userSpaceOnUse" class="svga-on-canvas-glasses-gradient-single-1-null"><stop id="SvgjsStop7442" stop-opacity="1" stop-color="#ffffff" offset="0.0708" ></stop><stop id="SvgjsStop7443" stop-opacity="0" stop-color="#ffffff" offset="1" ></stop></linearGradient><linearGradient id="SvgjsLinearGradient7508" x1="82.5167" y1="78.7186" x2="82.5167" y2="100.0816" gradientUnits="userSpaceOnUse" class="svga-on-canvas-glasses-gradient-single-0-null"><stop id="SvgjsStop7509" stop-opacity="1" stop-color="#ffffff" offset="0.0708" ></stop><stop id="SvgjsStop7510" stop-opacity="0" stop-color="#ffffff" offset="1" ></stop></linearGradient><linearGradient id="SvgjsLinearGradient7512" x1="41.5167" y1="78.7186" x2="41.5167" y2="100.0816" gradientTransform="matrix(-1 0 0 1 158.5026 0)" gradientUnits="userSpaceOnUse" class="svga-on-canvas-glasses-gradient-single-1-null"><stop id="SvgjsStop7513" stop-opacity="1" stop-color="#ffffff" offset="0.0708" ></stop><stop id="SvgjsStop7514" stop-opacity="0" stop-color="#ffffff" offset="1" ></stop></linearGradient></defs></svg>